<svg width="375" height="334" viewBox="0 0 375 334" fill="none" xmlns="http://www.w3.org/2000/svg">
<path d="M0 0C164 -2.22318e-06 220.5 0 375 0V319.703C233.984 374.052 146.354 246.771 0 319.703V0Z" fill="#70033E"/>
<mask id="mask0" mask-type="alpha" maskUnits="userSpaceOnUse" x="0" y="0" width="375" height="334">
<path d="M0 0C164 -2.22318e-06 220.5 0 375 0V319.703C233.984 374.052 146.354 246.771 0 319.703V0Z" fill="#70033E"/>
</mask>
<g mask="url(#mask0)">
<mask id="mask1" mask-type="alpha" maskUnits="userSpaceOnUse" x="-214" y="-113" width="1440" height="746">
<rect x="-214" y="-113" width="1440" height="746" fill="#70033E"/>
</mask>
<g mask="url(#mask1)">
<rect width="1662.8" height="2.86762" transform="matrix(0.887922 -0.459993 0.887922 0.459993 -973.398 256.152)" fill="white" fill-opacity="0.1"/>
<rect width="1662.8" height="2.86762" transform="matrix(0.887922 -0.459993 0.887922 0.459993 -998.08 256.152)" fill="white" fill-opacity="0.1"/>
<rect width="1662.8" height="2.86762" transform="matrix(0.887922 -0.459993 0.887922 0.459993 -667.926 414.403)" fill="white" fill-opacity="0.1"/>
<rect width="1662.8" height="2.86762" transform="matrix(0.887922 -0.459993 0.887922 0.459993 -692.609 414.403)" fill="white" fill-opacity="0.1"/>
<rect width="1662.8" height="2.86762" transform="matrix(0.887922 -0.459993 0.887922 0.459993 -362.458 572.653)" fill="white" fill-opacity="0.1"/>
<rect width="1662.8" height="2.86762" transform="matrix(0.887922 -0.459993 0.887922 0.459993 -387.14 572.653)" fill="white" fill-opacity="0.1"/>
<rect width="1662.8" height="2.86762" transform="matrix(0.887922 -0.459993 0.887922 0.459993 -820.662 335.278)" fill="white" fill-opacity="0.1"/>
<rect width="1662.8" height="2.86762" transform="matrix(0.887922 -0.459993 0.887922 0.459993 -845.344 335.278)" fill="white" fill-opacity="0.1"/>
<rect width="1662.8" height="2.86762" transform="matrix(0.887922 -0.459993 0.887922 0.459993 -515.193 493.527)" fill="white" fill-opacity="0.1"/>
<rect width="1662.8" height="2.86762" transform="matrix(0.887922 -0.459993 0.887922 0.459993 -539.876 493.527)" fill="white" fill-opacity="0.1"/>
<rect width="1662.8" height="2.86762" transform="matrix(0.887922 -0.459993 0.887922 0.459993 -209.722 651.778)" fill="white" fill-opacity="0.1"/>
<rect width="1662.8" height="2.86762" transform="matrix(0.887922 -0.459993 0.887922 0.459993 -234.405 651.778)" fill="white" fill-opacity="0.1"/>
<rect width="1662.8" height="2.86762" transform="matrix(0.887922 -0.459993 0.887922 0.459993 44.8369 783.654)" fill="white" fill-opacity="0.1"/>
<rect width="1662.8" height="2.86762" transform="matrix(0.887922 -0.459993 0.887922 0.459993 20.1548 783.654)" fill="white" fill-opacity="0.1"/>
<rect width="1662.8" height="2.86762" transform="matrix(0.887922 -0.459993 0.887922 0.459993 299.394 915.529)" fill="white" fill-opacity="0.1"/>
<rect width="1662.8" height="2.86762" transform="matrix(0.887922 -0.459993 0.887922 0.459993 274.711 915.529)" fill="white" fill-opacity="0.1"/>
<rect width="1662.8" height="2.86762" transform="matrix(0.887922 -0.459993 0.887922 0.459993 -897.03 295.715)" fill="white" fill-opacity="0.1"/>
<rect width="1662.8" height="2.86762" transform="matrix(0.887922 -0.459993 0.887922 0.459993 -921.712 295.715)" fill="white" fill-opacity="0.1"/>
<rect width="1662.8" height="2.86762" transform="matrix(0.887922 -0.459993 0.887922 0.459993 -591.561 453.965)" fill="white" fill-opacity="0.1"/>
<rect width="1662.8" height="2.86762" transform="matrix(0.887922 -0.459993 0.887922 0.459993 -616.244 453.965)" fill="white" fill-opacity="0.1"/>
<rect width="1662.8" height="2.86762" transform="matrix(0.887922 -0.459993 0.887922 0.459993 -286.09 612.216)" fill="white" fill-opacity="0.1"/>
<rect width="1662.8" height="2.86762" transform="matrix(0.887922 -0.459993 0.887922 0.459993 -310.772 612.216)" fill="white" fill-opacity="0.1"/>
<rect width="1662.8" height="2.86762" transform="matrix(0.887922 -0.459993 0.887922 0.459993 -744.294 374.841)" fill="white" fill-opacity="0.1"/>
<rect width="1662.8" height="2.86762" transform="matrix(0.887922 -0.459993 0.887922 0.459993 -768.977 374.84)" fill="white" fill-opacity="0.1"/>
<rect width="1662.8" height="2.86762" transform="matrix(0.887922 -0.459993 0.887922 0.459993 -438.826 533.09)" fill="white" fill-opacity="0.1"/>
<rect width="1662.8" height="2.86762" transform="matrix(0.887922 -0.459993 0.887922 0.459993 -463.508 533.09)" fill="white" fill-opacity="0.1"/>
<rect width="1662.8" height="2.86762" transform="matrix(0.887922 -0.459993 0.887922 0.459993 -133.355 691.341)" fill="white" fill-opacity="0.1"/>
<rect width="1662.8" height="2.86762" transform="matrix(0.887922 -0.459993 0.887922 0.459993 -158.037 691.341)" fill="white" fill-opacity="0.1"/>
<rect width="1662.8" height="2.86762" transform="matrix(0.887922 -0.459993 0.887922 0.459993 121.205 823.217)" fill="white" fill-opacity="0.1"/>
<rect width="1662.8" height="2.86762" transform="matrix(0.887922 -0.459993 0.887922 0.459993 96.5225 823.217)" fill="white" fill-opacity="0.1"/>
<rect width="1662.8" height="2.86762" transform="matrix(0.887922 -0.459993 0.887922 0.459993 351.079 955.091)" fill="white" fill-opacity="0.1"/>
<rect width="1662.8" height="2.86762" transform="matrix(0.887922 -0.459993 0.887922 0.459993 -56.9867 730.904)" fill="white" fill-opacity="0.1"/>
<rect width="1662.8" height="2.86762" transform="matrix(0.887922 -0.459993 0.887922 0.459993 -81.6691 730.904)" fill="white" fill-opacity="0.1"/>
<rect width="1662.8" height="2.86762" transform="matrix(0.887922 -0.459993 0.887922 0.459993 197.57 862.778)" fill="white" fill-opacity="0.1"/>
<rect width="1662.8" height="2.86762" transform="matrix(0.887922 -0.459993 0.887922 0.459993 172.887 862.778)" fill="white" fill-opacity="0.1"/>
<rect width="1662.8" height="2.86762" transform="matrix(0.887922 -0.459993 0.887922 0.459993 -947.942 269.34)" fill="white" fill-opacity="0.1"/>
<rect width="1662.8" height="2.86762" transform="matrix(0.887922 -0.459993 0.887922 0.459993 -972.624 269.34)" fill="white" fill-opacity="0.1"/>
<rect width="1662.8" height="2.86762" transform="matrix(0.887922 -0.459993 0.887922 0.459993 -642.47 427.591)" fill="white" fill-opacity="0.1"/>
<rect width="1662.8" height="2.86762" transform="matrix(0.887922 -0.459993 0.887922 0.459993 -667.153 427.591)" fill="white" fill-opacity="0.1"/>
<rect width="1662.8" height="2.86762" transform="matrix(0.887922 -0.459993 0.887922 0.459993 -337.002 585.84)" fill="white" fill-opacity="0.1"/>
<rect width="1662.8" height="2.86762" transform="matrix(0.887922 -0.459993 0.887922 0.459993 -361.684 585.84)" fill="white" fill-opacity="0.1"/>
<rect width="1662.8" height="2.86762" transform="matrix(0.887922 -0.459993 0.887922 0.459993 -795.206 348.465)" fill="white" fill-opacity="0.1"/>
<rect width="1662.8" height="2.86762" transform="matrix(0.887922 -0.459993 0.887922 0.459993 -819.888 348.465)" fill="white" fill-opacity="0.1"/>
<rect width="1662.8" height="2.86762" transform="matrix(0.887922 -0.459993 0.887922 0.459993 -489.738 506.715)" fill="white" fill-opacity="0.1"/>
<rect width="1662.8" height="2.86762" transform="matrix(0.887922 -0.459993 0.887922 0.459993 -514.42 506.715)" fill="white" fill-opacity="0.1"/>
<rect width="1662.8" height="2.86762" transform="matrix(0.887922 -0.459993 0.887922 0.459993 -184.266 664.966)" fill="white" fill-opacity="0.1"/>
<rect width="1662.8" height="2.86762" transform="matrix(0.887922 -0.459993 0.887922 0.459993 -208.949 664.966)" fill="white" fill-opacity="0.1"/>
<rect width="1662.8" height="2.86762" transform="matrix(0.887922 -0.459993 0.887922 0.459993 70.2932 796.842)" fill="white" fill-opacity="0.1"/>
<rect width="1662.8" height="2.86762" transform="matrix(0.887922 -0.459993 0.887922 0.459993 45.6106 796.842)" fill="white" fill-opacity="0.1"/>
<rect width="1662.8" height="2.86762" transform="matrix(0.887922 -0.459993 0.887922 0.459993 324.85 928.716)" fill="white" fill-opacity="0.1"/>
<rect width="1662.8" height="2.86762" transform="matrix(0.887922 -0.459993 0.887922 0.459993 300.167 928.716)" fill="white" fill-opacity="0.1"/>
<rect width="1662.8" height="2.86762" transform="matrix(0.887922 -0.459993 0.887922 0.459993 -871.574 308.903)" fill="white" fill-opacity="0.1"/>
<rect width="1662.8" height="2.86762" transform="matrix(0.887922 -0.459993 0.887922 0.459993 -896.256 308.903)" fill="white" fill-opacity="0.1"/>
<rect width="1662.8" height="2.86762" transform="matrix(0.887922 -0.459993 0.887922 0.459993 -566.105 467.152)" fill="white" fill-opacity="0.1"/>
<rect width="1662.8" height="2.86762" transform="matrix(0.887922 -0.459993 0.887922 0.459993 -590.788 467.152)" fill="white" fill-opacity="0.1"/>
<rect width="1662.8" height="2.86762" transform="matrix(0.887922 -0.459993 0.887922 0.459993 -260.634 625.403)" fill="white" fill-opacity="0.1"/>
<rect width="1662.8" height="2.86762" transform="matrix(0.887922 -0.459993 0.887922 0.459993 -285.316 625.403)" fill="white" fill-opacity="0.1"/>
<rect width="1662.8" height="2.86762" transform="matrix(0.887922 -0.459993 0.887922 0.459993 -718.838 388.028)" fill="white" fill-opacity="0.1"/>
<rect width="1662.8" height="2.86762" transform="matrix(0.887922 -0.459993 0.887922 0.459993 -743.521 388.028)" fill="white" fill-opacity="0.1"/>
<rect width="1662.8" height="2.86762" transform="matrix(0.887922 -0.459993 0.887922 0.459993 -413.37 546.278)" fill="white" fill-opacity="0.1"/>
<rect width="1662.8" height="2.86762" transform="matrix(0.887922 -0.459993 0.887922 0.459993 -438.052 546.278)" fill="white" fill-opacity="0.1"/>
<rect width="1662.8" height="2.86762" transform="matrix(0.887922 -0.459993 0.887922 0.459993 -107.899 704.529)" fill="white" fill-opacity="0.1"/>
<rect width="1662.8" height="2.86762" transform="matrix(0.887922 -0.459993 0.887922 0.459993 -132.581 704.529)" fill="white" fill-opacity="0.1"/>
<rect width="1662.8" height="2.86762" transform="matrix(0.887922 -0.459993 0.887922 0.459993 146.661 836.405)" fill="white" fill-opacity="0.1"/>
<rect width="1662.8" height="2.86762" transform="matrix(0.887922 -0.459993 0.887922 0.459993 121.979 836.405)" fill="white" fill-opacity="0.1"/>
<rect width="1662.8" height="2.86762" transform="matrix(0.887922 -0.459993 0.887922 0.459993 -31.5309 744.091)" fill="white" fill-opacity="0.1"/>
<rect width="1662.8" height="2.86762" transform="matrix(0.887922 -0.459993 0.887922 0.459993 -56.213 744.091)" fill="white" fill-opacity="0.1"/>
<rect width="1662.8" height="2.86762" transform="matrix(0.887922 -0.459993 0.887922 0.459993 223.026 875.966)" fill="white" fill-opacity="0.1"/>
<rect width="1662.8" height="2.86762" transform="matrix(0.887922 -0.459993 0.887922 0.459993 198.344 875.966)" fill="white" fill-opacity="0.1"/>
<rect width="1662.8" height="2.86762" transform="matrix(0.887922 -0.459993 0.887922 0.459993 -922.486 282.527)" fill="white" fill-opacity="0.1"/>
<rect width="1662.8" height="2.86762" transform="matrix(0.887922 -0.459993 0.887922 0.459993 -947.168 282.527)" fill="white" fill-opacity="0.1"/>
<rect width="1662.8" height="2.86762" transform="matrix(0.887922 -0.459993 0.887922 0.459993 -617.014 440.778)" fill="white" fill-opacity="0.1"/>
<rect width="1662.8" height="2.86762" transform="matrix(0.887922 -0.459993 0.887922 0.459993 -641.697 440.778)" fill="white" fill-opacity="0.1"/>
<rect width="1662.8" height="2.86762" transform="matrix(0.887922 -0.459993 0.887922 0.459993 -311.546 599.028)" fill="white" fill-opacity="0.1"/>
<rect width="1662.8" height="2.86762" transform="matrix(0.887922 -0.459993 0.887922 0.459993 -336.228 599.028)" fill="white" fill-opacity="0.1"/>
<rect width="1662.8" height="2.86762" transform="matrix(0.887922 -0.459993 0.887922 0.459993 -769.75 361.653)" fill="white" fill-opacity="0.1"/>
<rect width="1662.8" height="2.86762" transform="matrix(0.887922 -0.459993 0.887922 0.459993 -794.432 361.653)" fill="white" fill-opacity="0.1"/>
<rect width="1662.8" height="2.86762" transform="matrix(0.887922 -0.459993 0.887922 0.459993 -464.282 519.903)" fill="white" fill-opacity="0.1"/>
<rect width="1662.8" height="2.86762" transform="matrix(0.887922 -0.459993 0.887922 0.459993 -488.964 519.903)" fill="white" fill-opacity="0.1"/>
<rect width="1662.8" height="2.86762" transform="matrix(0.887922 -0.459993 0.887922 0.459993 -158.811 678.154)" fill="white" fill-opacity="0.1"/>
<rect width="1662.8" height="2.86762" transform="matrix(0.887922 -0.459993 0.887922 0.459993 -183.493 678.154)" fill="white" fill-opacity="0.1"/>
<rect width="1662.8" height="2.86762" transform="matrix(0.887922 -0.459993 0.887922 0.459993 95.7493 810.03)" fill="white" fill-opacity="0.1"/>
<rect width="1662.8" height="2.86762" transform="matrix(0.887922 -0.459993 0.887922 0.459993 71.0667 810.029)" fill="white" fill-opacity="0.1"/>
<rect width="1662.8" height="2.86762" transform="matrix(0.887922 -0.459993 0.887922 0.459993 350.306 941.904)" fill="white" fill-opacity="0.1"/>
<rect width="1662.8" height="2.86762" transform="matrix(0.887922 -0.459993 0.887922 0.459993 325.623 941.904)" fill="white" fill-opacity="0.1"/>
<rect width="1662.8" height="2.86762" transform="matrix(0.887922 -0.459993 0.887922 0.459993 -846.118 322.09)" fill="white" fill-opacity="0.1"/>
<rect width="1662.8" height="2.86762" transform="matrix(0.887922 -0.459993 0.887922 0.459993 -870.8 322.09)" fill="white" fill-opacity="0.1"/>
<rect width="1662.8" height="2.86762" transform="matrix(0.887922 -0.459993 0.887922 0.459993 -540.649 480.34)" fill="white" fill-opacity="0.1"/>
<rect width="1662.8" height="2.86762" transform="matrix(0.887922 -0.459993 0.887922 0.459993 -565.332 480.34)" fill="white" fill-opacity="0.1"/>
<rect width="1662.8" height="2.86762" transform="matrix(0.887922 -0.459993 0.887922 0.459993 -235.178 638.591)" fill="white" fill-opacity="0.1"/>
<rect width="1662.8" height="2.86762" transform="matrix(0.887922 -0.459993 0.887922 0.459993 -259.861 638.591)" fill="white" fill-opacity="0.1"/>
<rect width="1662.8" height="2.86762" transform="matrix(0.887922 -0.459993 0.887922 0.459993 -693.382 401.216)" fill="white" fill-opacity="0.1"/>
<rect width="1662.8" height="2.86762" transform="matrix(0.887922 -0.459993 0.887922 0.459993 -718.065 401.216)" fill="white" fill-opacity="0.1"/>
<rect width="1662.8" height="2.86762" transform="matrix(0.887922 -0.459993 0.887922 0.459993 -387.914 559.465)" fill="white" fill-opacity="0.1"/>
<rect width="1662.8" height="2.86762" transform="matrix(0.887922 -0.459993 0.887922 0.459993 -412.596 559.465)" fill="white" fill-opacity="0.1"/>
<rect width="1662.8" height="2.86762" transform="matrix(0.887922 -0.459993 0.887922 0.459993 -82.4427 717.716)" fill="white" fill-opacity="0.1"/>
<rect width="1662.8" height="2.86762" transform="matrix(0.887922 -0.459993 0.887922 0.459993 -107.125 717.716)" fill="white" fill-opacity="0.1"/>
<rect width="1662.8" height="2.86762" transform="matrix(0.887922 -0.459993 0.887922 0.459993 172.114 849.591)" fill="white" fill-opacity="0.1"/>
<rect width="1662.8" height="2.86762" transform="matrix(0.887922 -0.459993 0.887922 0.459993 147.432 849.591)" fill="white" fill-opacity="0.1"/>
<rect width="1662.8" height="2.86762" transform="matrix(0.887922 -0.459993 0.887922 0.459993 -6.07495 757.279)" fill="white" fill-opacity="0.1"/>
<rect width="1662.8" height="2.86762" transform="matrix(0.887922 -0.459993 0.887922 0.459993 -30.7572 757.279)" fill="white" fill-opacity="0.1"/>
<rect width="1662.8" height="2.86762" transform="matrix(0.887922 -0.459993 0.887922 0.459993 248.482 889.154)" fill="white" fill-opacity="0.1"/>
<rect width="1662.8" height="2.86762" transform="matrix(0.887922 -0.459993 0.887922 0.459993 223.799 889.154)" fill="white" fill-opacity="0.1"/>
<rect width="1662.8" height="2.86762" transform="matrix(0.887922 -0.459993 0.887922 0.459993 19.3811 770.467)" fill="white" fill-opacity="0.1"/>
<rect width="1662.8" height="2.86762" transform="matrix(0.887922 -0.459993 0.887922 0.459993 -5.30103 770.467)" fill="white" fill-opacity="0.1"/>
<rect width="1662.8" height="2.86762" transform="matrix(0.887922 -0.459993 0.887922 0.459993 273.938 902.341)" fill="white" fill-opacity="0.1"/>
<rect width="1662.8" height="2.86762" transform="matrix(0.887922 -0.459993 0.887922 0.459993 249.255 902.341)" fill="white" fill-opacity="0.1"/>
</g>
</g>
</svg>
