<svg width="1440" height="750" viewBox="0 0 1440 750" fill="none" xmlns="http://www.w3.org/2000/svg">
<mask id="mask0" mask-type="alpha" maskUnits="userSpaceOnUse" x="0" y="0" width="1440" height="750">
<rect width="1440" height="750" fill="#C4C4C4"/>
</mask>
<g mask="url(#mask0)">
<path d="M0 0H1440V386C1440 386 1026.5 898.5 448.5 700C193.292 612.355 0 700 0 700V0Z" fill="#70033E"/>
<mask id="mask1" mask-type="alpha" maskUnits="userSpaceOnUse" x="0" y="0" width="1440" height="746">
<path d="M0 0H1440V386C1440 386 1026.5 898.5 448.5 700C193.292 612.355 0 700 0 700V0Z" fill="#70033E"/>
</mask>
<g mask="url(#mask1)">
<mask id="mask2" mask-type="alpha" maskUnits="userSpaceOnUse" x="0" y="0" width="1440" height="746">
<rect width="1440" height="746" fill="#70033E"/>
</mask>
<g mask="url(#mask2)">
<rect width="1662.8" height="2.86762" transform="matrix(0.887922 -0.459993 0.887922 0.459993 -759.398 369.152)" fill="white" fill-opacity="0.1"/>
<rect width="1662.8" height="2.86762" transform="matrix(0.887922 -0.459993 0.887922 0.459993 -784.08 369.152)" fill="white" fill-opacity="0.1"/>
<rect width="1662.8" height="2.86762" transform="matrix(0.887922 -0.459993 0.887922 0.459993 -453.926 527.403)" fill="white" fill-opacity="0.1"/>
<rect width="1662.8" height="2.86762" transform="matrix(0.887922 -0.459993 0.887922 0.459993 -478.609 527.403)" fill="white" fill-opacity="0.1"/>
<rect width="1662.8" height="2.86762" transform="matrix(0.887922 -0.459993 0.887922 0.459993 -148.458 685.653)" fill="white" fill-opacity="0.1"/>
<rect width="1662.8" height="2.86762" transform="matrix(0.887922 -0.459993 0.887922 0.459993 -173.14 685.653)" fill="white" fill-opacity="0.1"/>
<rect width="1662.8" height="2.86762" transform="matrix(0.887922 -0.459993 0.887922 0.459993 -606.662 448.278)" fill="white" fill-opacity="0.1"/>
<rect width="1662.8" height="2.86762" transform="matrix(0.887922 -0.459993 0.887922 0.459993 -631.344 448.278)" fill="white" fill-opacity="0.1"/>
<rect width="1662.8" height="2.86762" transform="matrix(0.887922 -0.459993 0.887922 0.459993 -301.194 606.527)" fill="white" fill-opacity="0.1"/>
<rect width="1662.8" height="2.86762" transform="matrix(0.887922 -0.459993 0.887922 0.459993 -325.876 606.527)" fill="white" fill-opacity="0.1"/>
<rect width="1662.8" height="2.86762" transform="matrix(0.887922 -0.459993 0.887922 0.459993 4.27755 764.778)" fill="white" fill-opacity="0.1"/>
<rect width="1662.8" height="2.86762" transform="matrix(0.887922 -0.459993 0.887922 0.459993 -20.4047 764.778)" fill="white" fill-opacity="0.1"/>
<rect width="1662.8" height="2.86762" transform="matrix(0.887922 -0.459993 0.887922 0.459993 258.837 896.654)" fill="white" fill-opacity="0.1"/>
<rect width="1662.8" height="2.86762" transform="matrix(0.887922 -0.459993 0.887922 0.459993 234.155 896.654)" fill="white" fill-opacity="0.1"/>
<rect width="1662.8" height="2.86762" transform="matrix(0.887922 -0.459993 0.887922 0.459993 513.394 1028.53)" fill="white" fill-opacity="0.1"/>
<rect width="1662.8" height="2.86762" transform="matrix(0.887922 -0.459993 0.887922 0.459993 488.711 1028.53)" fill="white" fill-opacity="0.1"/>
<rect width="1662.8" height="2.86762" transform="matrix(0.887922 -0.459993 0.887922 0.459993 -683.03 408.715)" fill="white" fill-opacity="0.1"/>
<rect width="1662.8" height="2.86762" transform="matrix(0.887922 -0.459993 0.887922 0.459993 -707.712 408.715)" fill="white" fill-opacity="0.1"/>
<rect width="1662.8" height="2.86762" transform="matrix(0.887922 -0.459993 0.887922 0.459993 -377.561 566.965)" fill="white" fill-opacity="0.1"/>
<rect width="1662.8" height="2.86762" transform="matrix(0.887922 -0.459993 0.887922 0.459993 -402.244 566.965)" fill="white" fill-opacity="0.1"/>
<rect width="1662.8" height="2.86762" transform="matrix(0.887922 -0.459993 0.887922 0.459993 -72.0903 725.216)" fill="white" fill-opacity="0.1"/>
<rect width="1662.8" height="2.86762" transform="matrix(0.887922 -0.459993 0.887922 0.459993 -96.7724 725.216)" fill="white" fill-opacity="0.1"/>
<rect width="1662.8" height="2.86762" transform="matrix(0.887922 -0.459993 0.887922 0.459993 -530.294 487.841)" fill="white" fill-opacity="0.1"/>
<rect width="1662.8" height="2.86762" transform="matrix(0.887922 -0.459993 0.887922 0.459993 -554.977 487.84)" fill="white" fill-opacity="0.1"/>
<rect width="1662.8" height="2.86762" transform="matrix(0.887922 -0.459993 0.887922 0.459993 -224.826 646.09)" fill="white" fill-opacity="0.1"/>
<rect width="1662.8" height="2.86762" transform="matrix(0.887922 -0.459993 0.887922 0.459993 -249.508 646.09)" fill="white" fill-opacity="0.1"/>
<rect width="1662.8" height="2.86762" transform="matrix(0.887922 -0.459993 0.887922 0.459993 80.6454 804.341)" fill="white" fill-opacity="0.1"/>
<rect width="1662.8" height="2.86762" transform="matrix(0.887922 -0.459993 0.887922 0.459993 55.9632 804.341)" fill="white" fill-opacity="0.1"/>
<rect width="1662.8" height="2.86762" transform="matrix(0.887922 -0.459993 0.887922 0.459993 335.205 936.217)" fill="white" fill-opacity="0.1"/>
<rect width="1662.8" height="2.86762" transform="matrix(0.887922 -0.459993 0.887922 0.459993 310.522 936.217)" fill="white" fill-opacity="0.1"/>
<rect width="1662.8" height="2.86762" transform="matrix(0.887922 -0.459993 0.887922 0.459993 589.762 1068.09)" fill="white" fill-opacity="0.1"/>
<rect width="1662.8" height="2.86762" transform="matrix(0.887922 -0.459993 0.887922 0.459993 565.079 1068.09)" fill="white" fill-opacity="0.1"/>
<rect width="1662.8" height="2.86762" transform="matrix(0.887922 -0.459993 0.887922 0.459993 157.013 843.904)" fill="white" fill-opacity="0.1"/>
<rect width="1662.8" height="2.86762" transform="matrix(0.887922 -0.459993 0.887922 0.459993 132.331 843.904)" fill="white" fill-opacity="0.1"/>
<rect width="1662.8" height="2.86762" transform="matrix(0.887922 -0.459993 0.887922 0.459993 411.57 975.778)" fill="white" fill-opacity="0.1"/>
<rect width="1662.8" height="2.86762" transform="matrix(0.887922 -0.459993 0.887922 0.459993 386.888 975.778)" fill="white" fill-opacity="0.1"/>
<rect width="1662.8" height="2.86762" transform="matrix(0.887922 -0.459993 0.887922 0.459993 666.129 1107.65)" fill="white" fill-opacity="0.1"/>
<rect width="1662.8" height="2.86762" transform="matrix(0.887922 -0.459993 0.887922 0.459993 641.447 1107.65)" fill="white" fill-opacity="0.1"/>
<rect width="1662.8" height="2.86762" transform="matrix(0.887922 -0.459993 0.887922 0.459993 -733.942 382.34)" fill="white" fill-opacity="0.1"/>
<rect width="1662.8" height="2.86762" transform="matrix(0.887922 -0.459993 0.887922 0.459993 -758.624 382.34)" fill="white" fill-opacity="0.1"/>
<rect width="1662.8" height="2.86762" transform="matrix(0.887922 -0.459993 0.887922 0.459993 -428.47 540.591)" fill="white" fill-opacity="0.1"/>
<rect width="1662.8" height="2.86762" transform="matrix(0.887922 -0.459993 0.887922 0.459993 -453.153 540.591)" fill="white" fill-opacity="0.1"/>
<rect width="1662.8" height="2.86762" transform="matrix(0.887922 -0.459993 0.887922 0.459993 -123.002 698.84)" fill="white" fill-opacity="0.1"/>
<rect width="1662.8" height="2.86762" transform="matrix(0.887922 -0.459993 0.887922 0.459993 -147.684 698.84)" fill="white" fill-opacity="0.1"/>
<rect width="1662.8" height="2.86762" transform="matrix(0.887922 -0.459993 0.887922 0.459993 -581.206 461.465)" fill="white" fill-opacity="0.1"/>
<rect width="1662.8" height="2.86762" transform="matrix(0.887922 -0.459993 0.887922 0.459993 -605.888 461.465)" fill="white" fill-opacity="0.1"/>
<rect width="1662.8" height="2.86762" transform="matrix(0.887922 -0.459993 0.887922 0.459993 -275.738 619.715)" fill="white" fill-opacity="0.1"/>
<rect width="1662.8" height="2.86762" transform="matrix(0.887922 -0.459993 0.887922 0.459993 -300.42 619.715)" fill="white" fill-opacity="0.1"/>
<rect width="1662.8" height="2.86762" transform="matrix(0.887922 -0.459993 0.887922 0.459993 29.7336 777.966)" fill="white" fill-opacity="0.1"/>
<rect width="1662.8" height="2.86762" transform="matrix(0.887922 -0.459993 0.887922 0.459993 5.05135 777.966)" fill="white" fill-opacity="0.1"/>
<rect width="1662.8" height="2.86762" transform="matrix(0.887922 -0.459993 0.887922 0.459993 284.293 909.842)" fill="white" fill-opacity="0.1"/>
<rect width="1662.8" height="2.86762" transform="matrix(0.887922 -0.459993 0.887922 0.459993 259.611 909.842)" fill="white" fill-opacity="0.1"/>
<rect width="1662.8" height="2.86762" transform="matrix(0.887922 -0.459993 0.887922 0.459993 538.85 1041.72)" fill="white" fill-opacity="0.1"/>
<rect width="1662.8" height="2.86762" transform="matrix(0.887922 -0.459993 0.887922 0.459993 514.167 1041.72)" fill="white" fill-opacity="0.1"/>
<rect width="1662.8" height="2.86762" transform="matrix(0.887922 -0.459993 0.887922 0.459993 -657.574 421.903)" fill="white" fill-opacity="0.1"/>
<rect width="1662.8" height="2.86762" transform="matrix(0.887922 -0.459993 0.887922 0.459993 -682.256 421.902)" fill="white" fill-opacity="0.1"/>
<rect width="1662.8" height="2.86762" transform="matrix(0.887922 -0.459993 0.887922 0.459993 -352.105 580.152)" fill="white" fill-opacity="0.1"/>
<rect width="1662.8" height="2.86762" transform="matrix(0.887922 -0.459993 0.887922 0.459993 -376.788 580.152)" fill="white" fill-opacity="0.1"/>
<rect width="1662.8" height="2.86762" transform="matrix(0.887922 -0.459993 0.887922 0.459993 -46.6342 738.403)" fill="white" fill-opacity="0.1"/>
<rect width="1662.8" height="2.86762" transform="matrix(0.887922 -0.459993 0.887922 0.459993 -71.3165 738.403)" fill="white" fill-opacity="0.1"/>
<rect width="1662.8" height="2.86762" transform="matrix(0.887922 -0.459993 0.887922 0.459993 -504.838 501.028)" fill="white" fill-opacity="0.1"/>
<rect width="1662.8" height="2.86762" transform="matrix(0.887922 -0.459993 0.887922 0.459993 -529.521 501.028)" fill="white" fill-opacity="0.1"/>
<rect width="1662.8" height="2.86762" transform="matrix(0.887922 -0.459993 0.887922 0.459993 -199.37 659.278)" fill="white" fill-opacity="0.1"/>
<rect width="1662.8" height="2.86762" transform="matrix(0.887922 -0.459993 0.887922 0.459993 -224.052 659.278)" fill="white" fill-opacity="0.1"/>
<rect width="1662.8" height="2.86762" transform="matrix(0.887922 -0.459993 0.887922 0.459993 106.101 817.529)" fill="white" fill-opacity="0.1"/>
<rect width="1662.8" height="2.86762" transform="matrix(0.887922 -0.459993 0.887922 0.459993 81.419 817.529)" fill="white" fill-opacity="0.1"/>
<rect width="1662.8" height="2.86762" transform="matrix(0.887922 -0.459993 0.887922 0.459993 360.661 949.405)" fill="white" fill-opacity="0.1"/>
<rect width="1662.8" height="2.86762" transform="matrix(0.887922 -0.459993 0.887922 0.459993 335.978 949.405)" fill="white" fill-opacity="0.1"/>
<rect width="1662.8" height="2.86762" transform="matrix(0.887922 -0.459993 0.887922 0.459993 615.218 1081.28)" fill="white" fill-opacity="0.1"/>
<rect width="1662.8" height="2.86762" transform="matrix(0.887922 -0.459993 0.887922 0.459993 590.535 1081.28)" fill="white" fill-opacity="0.1"/>
<rect width="1662.8" height="2.86762" transform="matrix(0.887922 -0.459993 0.887922 0.459993 182.469 857.091)" fill="white" fill-opacity="0.1"/>
<rect width="1662.8" height="2.86762" transform="matrix(0.887922 -0.459993 0.887922 0.459993 157.787 857.091)" fill="white" fill-opacity="0.1"/>
<rect width="1662.8" height="2.86762" transform="matrix(0.887922 -0.459993 0.887922 0.459993 437.026 988.966)" fill="white" fill-opacity="0.1"/>
<rect width="1662.8" height="2.86762" transform="matrix(0.887922 -0.459993 0.887922 0.459993 412.344 988.966)" fill="white" fill-opacity="0.1"/>
<rect width="1662.8" height="2.86762" transform="matrix(0.887922 -0.459993 0.887922 0.459993 691.585 1120.84)" fill="white" fill-opacity="0.1"/>
<rect width="1662.8" height="2.86762" transform="matrix(0.887922 -0.459993 0.887922 0.459993 666.903 1120.84)" fill="white" fill-opacity="0.1"/>
<rect width="1662.8" height="2.86762" transform="matrix(0.887922 -0.459993 0.887922 0.459993 -708.486 395.527)" fill="white" fill-opacity="0.1"/>
<rect width="1662.8" height="2.86762" transform="matrix(0.887922 -0.459993 0.887922 0.459993 -733.168 395.527)" fill="white" fill-opacity="0.1"/>
<rect width="1662.8" height="2.86762" transform="matrix(0.887922 -0.459993 0.887922 0.459993 -403.014 553.778)" fill="white" fill-opacity="0.1"/>
<rect width="1662.8" height="2.86762" transform="matrix(0.887922 -0.459993 0.887922 0.459993 -427.697 553.778)" fill="white" fill-opacity="0.1"/>
<rect width="1662.8" height="2.86762" transform="matrix(0.887922 -0.459993 0.887922 0.459993 -97.5462 712.028)" fill="white" fill-opacity="0.1"/>
<rect width="1662.8" height="2.86762" transform="matrix(0.887922 -0.459993 0.887922 0.459993 -122.228 712.028)" fill="white" fill-opacity="0.1"/>
<rect width="1662.8" height="2.86762" transform="matrix(0.887922 -0.459993 0.887922 0.459993 -555.75 474.653)" fill="white" fill-opacity="0.1"/>
<rect width="1662.8" height="2.86762" transform="matrix(0.887922 -0.459993 0.887922 0.459993 -580.432 474.653)" fill="white" fill-opacity="0.1"/>
<rect width="1662.8" height="2.86762" transform="matrix(0.887922 -0.459993 0.887922 0.459993 -250.282 632.902)" fill="white" fill-opacity="0.1"/>
<rect width="1662.8" height="2.86762" transform="matrix(0.887922 -0.459993 0.887922 0.459993 -274.964 632.902)" fill="white" fill-opacity="0.1"/>
<rect width="1662.8" height="2.86762" transform="matrix(0.887922 -0.459993 0.887922 0.459993 55.1895 791.154)" fill="white" fill-opacity="0.1"/>
<rect width="1662.8" height="2.86762" transform="matrix(0.887922 -0.459993 0.887922 0.459993 30.5072 791.154)" fill="white" fill-opacity="0.1"/>
<rect width="1662.8" height="2.86762" transform="matrix(0.887922 -0.459993 0.887922 0.459993 309.749 923.03)" fill="white" fill-opacity="0.1"/>
<rect width="1662.8" height="2.86762" transform="matrix(0.887922 -0.459993 0.887922 0.459993 285.067 923.029)" fill="white" fill-opacity="0.1"/>
<rect width="1662.8" height="2.86762" transform="matrix(0.887922 -0.459993 0.887922 0.459993 564.306 1054.9)" fill="white" fill-opacity="0.1"/>
<rect width="1662.8" height="2.86762" transform="matrix(0.887922 -0.459993 0.887922 0.459993 539.623 1054.9)" fill="white" fill-opacity="0.1"/>
<rect width="1662.8" height="2.86762" transform="matrix(0.887922 -0.459993 0.887922 0.459993 -632.118 435.09)" fill="white" fill-opacity="0.1"/>
<rect width="1662.8" height="2.86762" transform="matrix(0.887922 -0.459993 0.887922 0.459993 -656.8 435.09)" fill="white" fill-opacity="0.1"/>
<rect width="1662.8" height="2.86762" transform="matrix(0.887922 -0.459993 0.887922 0.459993 -326.649 593.34)" fill="white" fill-opacity="0.1"/>
<rect width="1662.8" height="2.86762" transform="matrix(0.887922 -0.459993 0.887922 0.459993 -351.332 593.34)" fill="white" fill-opacity="0.1"/>
<rect width="1662.8" height="2.86762" transform="matrix(0.887922 -0.459993 0.887922 0.459993 -21.1784 751.591)" fill="white" fill-opacity="0.1"/>
<rect width="1662.8" height="2.86762" transform="matrix(0.887922 -0.459993 0.887922 0.459993 -45.8606 751.591)" fill="white" fill-opacity="0.1"/>
<rect width="1662.8" height="2.86762" transform="matrix(0.887922 -0.459993 0.887922 0.459993 -479.382 514.216)" fill="white" fill-opacity="0.1"/>
<rect width="1662.8" height="2.86762" transform="matrix(0.887922 -0.459993 0.887922 0.459993 -504.065 514.216)" fill="white" fill-opacity="0.1"/>
<rect width="1662.8" height="2.86762" transform="matrix(0.887922 -0.459993 0.887922 0.459993 -173.914 672.465)" fill="white" fill-opacity="0.1"/>
<rect width="1662.8" height="2.86762" transform="matrix(0.887922 -0.459993 0.887922 0.459993 -198.596 672.465)" fill="white" fill-opacity="0.1"/>
<rect width="1662.8" height="2.86762" transform="matrix(0.887922 -0.459993 0.887922 0.459993 131.557 830.716)" fill="white" fill-opacity="0.1"/>
<rect width="1662.8" height="2.86762" transform="matrix(0.887922 -0.459993 0.887922 0.459993 106.875 830.716)" fill="white" fill-opacity="0.1"/>
<rect width="1662.8" height="2.86762" transform="matrix(0.887922 -0.459993 0.887922 0.459993 386.114 962.591)" fill="white" fill-opacity="0.1"/>
<rect width="1662.8" height="2.86762" transform="matrix(0.887922 -0.459993 0.887922 0.459993 361.432 962.591)" fill="white" fill-opacity="0.1"/>
<rect width="1662.8" height="2.86762" transform="matrix(0.887922 -0.459993 0.887922 0.459993 640.674 1094.47)" fill="white" fill-opacity="0.1"/>
<rect width="1662.8" height="2.86762" transform="matrix(0.887922 -0.459993 0.887922 0.459993 615.991 1094.47)" fill="white" fill-opacity="0.1"/>
<rect width="1662.8" height="2.86762" transform="matrix(0.887922 -0.459993 0.887922 0.459993 207.925 870.279)" fill="white" fill-opacity="0.1"/>
<rect width="1662.8" height="2.86762" transform="matrix(0.887922 -0.459993 0.887922 0.459993 183.243 870.279)" fill="white" fill-opacity="0.1"/>
<rect width="1662.8" height="2.86762" transform="matrix(0.887922 -0.459993 0.887922 0.459993 462.482 1002.15)" fill="white" fill-opacity="0.1"/>
<rect width="1662.8" height="2.86762" transform="matrix(0.887922 -0.459993 0.887922 0.459993 437.799 1002.15)" fill="white" fill-opacity="0.1"/>
<rect width="1662.8" height="2.86762" transform="matrix(0.887922 -0.459993 0.887922 0.459993 717.041 1134.03)" fill="white" fill-opacity="0.1"/>
<rect width="1662.8" height="2.86762" transform="matrix(0.887922 -0.459993 0.887922 0.459993 692.359 1134.03)" fill="white" fill-opacity="0.1"/>
<rect width="1662.8" height="2.86762" transform="matrix(0.887922 -0.459993 0.887922 0.459993 233.381 883.467)" fill="white" fill-opacity="0.1"/>
<rect width="1662.8" height="2.86762" transform="matrix(0.887922 -0.459993 0.887922 0.459993 208.699 883.467)" fill="white" fill-opacity="0.1"/>
<rect width="1662.8" height="2.86762" transform="matrix(0.887922 -0.459993 0.887922 0.459993 487.938 1015.34)" fill="white" fill-opacity="0.1"/>
<rect width="1662.8" height="2.86762" transform="matrix(0.887922 -0.459993 0.887922 0.459993 463.255 1015.34)" fill="white" fill-opacity="0.1"/>
<rect width="1662.8" height="2.86762" transform="matrix(0.887922 -0.459993 0.887922 0.459993 742.497 1147.22)" fill="white" fill-opacity="0.1"/>
<rect width="1662.8" height="2.86762" transform="matrix(0.887922 -0.459993 0.887922 0.459993 717.815 1147.22)" fill="white" fill-opacity="0.1"/>
</g>
</g>
<ellipse cx="1169" cy="350.5" rx="500" ry="500.5" fill="#FBFBFB"/>
</g>
</svg>
