<svg width="1440" height="550" viewBox="0 0 1440 550" fill="none" xmlns="http://www.w3.org/2000/svg">
<mask id="mask0" mask-type="alpha" maskUnits="userSpaceOnUse" x="0" y="0" width="1440" height="550">
<rect width="1440" height="550" fill="#C4C4C4"/>
</mask>
<g mask="url(#mask0)">
<path d="M0 0H1440V283.067C1440 283.067 1026.5 658.9 448.5 513.333C193.292 449.06 0 513.333 0 513.333V0Z" fill="#70033E"/>
<mask id="mask1" mask-type="alpha" maskUnits="userSpaceOnUse" x="0" y="0" width="1440" height="547">
<path d="M0 0H1440V283.067C1440 283.067 1026.5 658.9 448.5 513.333C193.292 449.06 0 513.333 0 513.333V0Z" fill="#70033E"/>
</mask>
<g mask="url(#mask1)">
<mask id="mask2" mask-type="alpha" maskUnits="userSpaceOnUse" x="0" y="0" width="1440" height="548">
<rect width="1440" height="547.067" fill="#70033E"/>
</mask>
<g mask="url(#mask2)">
<rect width="1579.4" height="2.72378" transform="matrix(0.934812 -0.355142 0.934812 0.355142 -759.398 270.711)" fill="white" fill-opacity="0.1"/>
<rect width="1579.4" height="2.72378" transform="matrix(0.934812 -0.355142 0.934812 0.355142 -784.08 270.711)" fill="white" fill-opacity="0.1"/>
<rect width="1579.4" height="2.72378" transform="matrix(0.934812 -0.355142 0.934812 0.355142 -453.926 386.762)" fill="white" fill-opacity="0.1"/>
<rect width="1579.4" height="2.72378" transform="matrix(0.934812 -0.355142 0.934812 0.355142 -478.609 386.762)" fill="white" fill-opacity="0.1"/>
<rect width="1579.4" height="2.72378" transform="matrix(0.934812 -0.355142 0.934812 0.355142 -148.458 502.812)" fill="white" fill-opacity="0.1"/>
<rect width="1579.4" height="2.72378" transform="matrix(0.934812 -0.355142 0.934812 0.355142 -173.14 502.812)" fill="white" fill-opacity="0.1"/>
<rect width="1579.4" height="2.72378" transform="matrix(0.934812 -0.355142 0.934812 0.355142 -606.662 328.737)" fill="white" fill-opacity="0.1"/>
<rect width="1579.4" height="2.72378" transform="matrix(0.934812 -0.355142 0.934812 0.355142 -631.344 328.737)" fill="white" fill-opacity="0.1"/>
<rect width="1579.4" height="2.72378" transform="matrix(0.934812 -0.355142 0.934812 0.355142 -301.194 444.787)" fill="white" fill-opacity="0.1"/>
<rect width="1579.4" height="2.72378" transform="matrix(0.934812 -0.355142 0.934812 0.355142 -325.876 444.787)" fill="white" fill-opacity="0.1"/>
<rect width="1579.4" height="2.72378" transform="matrix(0.934812 -0.355142 0.934812 0.355142 4.27759 560.837)" fill="white" fill-opacity="0.1"/>
<rect width="1579.4" height="2.72378" transform="matrix(0.934812 -0.355142 0.934812 0.355142 -20.4048 560.837)" fill="white" fill-opacity="0.1"/>
<rect width="1579.4" height="2.72378" transform="matrix(0.934812 -0.355142 0.934812 0.355142 258.837 657.546)" fill="white" fill-opacity="0.1"/>
<rect width="1579.4" height="2.72378" transform="matrix(0.934812 -0.355142 0.934812 0.355142 234.155 657.547)" fill="white" fill-opacity="0.1"/>
<rect width="1579.4" height="2.72378" transform="matrix(0.934812 -0.355142 0.934812 0.355142 513.394 754.255)" fill="white" fill-opacity="0.1"/>
<rect width="1579.4" height="2.72378" transform="matrix(0.934812 -0.355142 0.934812 0.355142 488.711 754.254)" fill="white" fill-opacity="0.1"/>
<rect width="1579.4" height="2.72378" transform="matrix(0.934812 -0.355142 0.934812 0.355142 -683.03 299.724)" fill="white" fill-opacity="0.1"/>
<rect width="1579.4" height="2.72378" transform="matrix(0.934812 -0.355142 0.934812 0.355142 -707.712 299.724)" fill="white" fill-opacity="0.1"/>
<rect width="1579.4" height="2.72378" transform="matrix(0.934812 -0.355142 0.934812 0.355142 -377.561 415.774)" fill="white" fill-opacity="0.1"/>
<rect width="1579.4" height="2.72378" transform="matrix(0.934812 -0.355142 0.934812 0.355142 -402.244 415.774)" fill="white" fill-opacity="0.1"/>
<rect width="1579.4" height="2.72378" transform="matrix(0.934812 -0.355142 0.934812 0.355142 -72.0903 531.825)" fill="white" fill-opacity="0.1"/>
<rect width="1579.4" height="2.72378" transform="matrix(0.934812 -0.355142 0.934812 0.355142 -96.7725 531.825)" fill="white" fill-opacity="0.1"/>
<rect width="1579.4" height="2.72378" transform="matrix(0.934812 -0.355142 0.934812 0.355142 -530.294 357.75)" fill="white" fill-opacity="0.1"/>
<rect width="1579.4" height="2.72378" transform="matrix(0.934812 -0.355142 0.934812 0.355142 -554.977 357.75)" fill="white" fill-opacity="0.1"/>
<rect width="1579.4" height="2.72378" transform="matrix(0.934812 -0.355142 0.934812 0.355142 -224.826 473.799)" fill="white" fill-opacity="0.1"/>
<rect width="1579.4" height="2.72378" transform="matrix(0.934812 -0.355142 0.934812 0.355142 -249.508 473.799)" fill="white" fill-opacity="0.1"/>
<rect width="1579.4" height="2.72378" transform="matrix(0.934812 -0.355142 0.934812 0.355142 80.6455 589.85)" fill="white" fill-opacity="0.1"/>
<rect width="1579.4" height="2.72378" transform="matrix(0.934812 -0.355142 0.934812 0.355142 55.9631 589.85)" fill="white" fill-opacity="0.1"/>
<rect width="1579.4" height="2.72378" transform="matrix(0.934812 -0.355142 0.934812 0.355142 335.205 686.559)" fill="white" fill-opacity="0.1"/>
<rect width="1579.4" height="2.72378" transform="matrix(0.934812 -0.355142 0.934812 0.355142 310.522 686.559)" fill="white" fill-opacity="0.1"/>
<rect width="1579.4" height="2.72378" transform="matrix(0.934812 -0.355142 0.934812 0.355142 589.761 783.267)" fill="white" fill-opacity="0.1"/>
<rect width="1579.4" height="2.72378" transform="matrix(0.934812 -0.355142 0.934812 0.355142 565.079 783.267)" fill="white" fill-opacity="0.1"/>
<rect width="1579.4" height="2.72378" transform="matrix(0.934812 -0.355142 0.934812 0.355142 157.013 618.863)" fill="white" fill-opacity="0.1"/>
<rect width="1579.4" height="2.72378" transform="matrix(0.934812 -0.355142 0.934812 0.355142 132.331 618.863)" fill="white" fill-opacity="0.1"/>
<rect width="1579.4" height="2.72378" transform="matrix(0.934812 -0.355142 0.934812 0.355142 411.57 715.571)" fill="white" fill-opacity="0.1"/>
<rect width="1579.4" height="2.72378" transform="matrix(0.934812 -0.355142 0.934812 0.355142 386.887 715.571)" fill="white" fill-opacity="0.1"/>
<rect width="1579.4" height="2.72378" transform="matrix(0.934812 -0.355142 0.934812 0.355142 666.129 812.28)" fill="white" fill-opacity="0.1"/>
<rect width="1579.4" height="2.72378" transform="matrix(0.934812 -0.355142 0.934812 0.355142 641.447 812.28)" fill="white" fill-opacity="0.1"/>
<rect width="1579.4" height="2.72378" transform="matrix(0.934812 -0.355142 0.934812 0.355142 -733.942 280.383)" fill="white" fill-opacity="0.1"/>
<rect width="1579.4" height="2.72378" transform="matrix(0.934812 -0.355142 0.934812 0.355142 -758.624 280.382)" fill="white" fill-opacity="0.1"/>
<rect width="1579.4" height="2.72378" transform="matrix(0.934812 -0.355142 0.934812 0.355142 -428.47 396.433)" fill="white" fill-opacity="0.1"/>
<rect width="1579.4" height="2.72378" transform="matrix(0.934812 -0.355142 0.934812 0.355142 -453.153 396.433)" fill="white" fill-opacity="0.1"/>
<rect width="1579.4" height="2.72378" transform="matrix(0.934812 -0.355142 0.934812 0.355142 -123.002 512.483)" fill="white" fill-opacity="0.1"/>
<rect width="1579.4" height="2.72378" transform="matrix(0.934812 -0.355142 0.934812 0.355142 -147.684 512.483)" fill="white" fill-opacity="0.1"/>
<rect width="1579.4" height="2.72378" transform="matrix(0.934812 -0.355142 0.934812 0.355142 -581.206 338.408)" fill="white" fill-opacity="0.1"/>
<rect width="1579.4" height="2.72378" transform="matrix(0.934812 -0.355142 0.934812 0.355142 -605.888 338.408)" fill="white" fill-opacity="0.1"/>
<rect width="1579.4" height="2.72378" transform="matrix(0.934812 -0.355142 0.934812 0.355142 -275.738 454.458)" fill="white" fill-opacity="0.1"/>
<rect width="1579.4" height="2.72378" transform="matrix(0.934812 -0.355142 0.934812 0.355142 -300.42 454.458)" fill="white" fill-opacity="0.1"/>
<rect width="1579.4" height="2.72378" transform="matrix(0.934812 -0.355142 0.934812 0.355142 29.7336 570.508)" fill="white" fill-opacity="0.1"/>
<rect width="1579.4" height="2.72378" transform="matrix(0.934812 -0.355142 0.934812 0.355142 5.05127 570.508)" fill="white" fill-opacity="0.1"/>
<rect width="1579.4" height="2.72378" transform="matrix(0.934812 -0.355142 0.934812 0.355142 284.293 667.218)" fill="white" fill-opacity="0.1"/>
<rect width="1579.4" height="2.72378" transform="matrix(0.934812 -0.355142 0.934812 0.355142 259.611 667.217)" fill="white" fill-opacity="0.1"/>
<rect width="1579.4" height="2.72378" transform="matrix(0.934812 -0.355142 0.934812 0.355142 538.85 763.925)" fill="white" fill-opacity="0.1"/>
<rect width="1579.4" height="2.72378" transform="matrix(0.934812 -0.355142 0.934812 0.355142 514.167 763.925)" fill="white" fill-opacity="0.1"/>
<rect width="1579.4" height="2.72378" transform="matrix(0.934812 -0.355142 0.934812 0.355142 -657.574 309.395)" fill="white" fill-opacity="0.1"/>
<rect width="1579.4" height="2.72378" transform="matrix(0.934812 -0.355142 0.934812 0.355142 -682.256 309.395)" fill="white" fill-opacity="0.1"/>
<rect width="1579.4" height="2.72378" transform="matrix(0.934812 -0.355142 0.934812 0.355142 -352.105 425.445)" fill="white" fill-opacity="0.1"/>
<rect width="1579.4" height="2.72378" transform="matrix(0.934812 -0.355142 0.934812 0.355142 -376.788 425.445)" fill="white" fill-opacity="0.1"/>
<rect width="1579.4" height="2.72378" transform="matrix(0.934812 -0.355142 0.934812 0.355142 -46.6343 541.496)" fill="white" fill-opacity="0.1"/>
<rect width="1579.4" height="2.72378" transform="matrix(0.934812 -0.355142 0.934812 0.355142 -71.3164 541.496)" fill="white" fill-opacity="0.1"/>
<rect width="1579.4" height="2.72378" transform="matrix(0.934812 -0.355142 0.934812 0.355142 -504.838 367.421)" fill="white" fill-opacity="0.1"/>
<rect width="1579.4" height="2.72378" transform="matrix(0.934812 -0.355142 0.934812 0.355142 -529.521 367.421)" fill="white" fill-opacity="0.1"/>
<rect width="1579.4" height="2.72378" transform="matrix(0.934812 -0.355142 0.934812 0.355142 -199.37 483.47)" fill="white" fill-opacity="0.1"/>
<rect width="1579.4" height="2.72378" transform="matrix(0.934812 -0.355142 0.934812 0.355142 -224.052 483.47)" fill="white" fill-opacity="0.1"/>
<rect width="1579.4" height="2.72378" transform="matrix(0.934812 -0.355142 0.934812 0.355142 106.101 599.521)" fill="white" fill-opacity="0.1"/>
<rect width="1579.4" height="2.72378" transform="matrix(0.934812 -0.355142 0.934812 0.355142 81.4189 599.521)" fill="white" fill-opacity="0.1"/>
<rect width="1579.4" height="2.72378" transform="matrix(0.934812 -0.355142 0.934812 0.355142 360.661 696.23)" fill="white" fill-opacity="0.1"/>
<rect width="1579.4" height="2.72378" transform="matrix(0.934812 -0.355142 0.934812 0.355142 335.979 696.23)" fill="white" fill-opacity="0.1"/>
<rect width="1579.4" height="2.72378" transform="matrix(0.934812 -0.355142 0.934812 0.355142 615.218 792.938)" fill="white" fill-opacity="0.1"/>
<rect width="1579.4" height="2.72378" transform="matrix(0.934812 -0.355142 0.934812 0.355142 590.535 792.938)" fill="white" fill-opacity="0.1"/>
<rect width="1579.4" height="2.72378" transform="matrix(0.934812 -0.355142 0.934812 0.355142 182.469 628.534)" fill="white" fill-opacity="0.1"/>
<rect width="1579.4" height="2.72378" transform="matrix(0.934812 -0.355142 0.934812 0.355142 157.787 628.534)" fill="white" fill-opacity="0.1"/>
<rect width="1579.4" height="2.72378" transform="matrix(0.934812 -0.355142 0.934812 0.355142 437.026 725.242)" fill="white" fill-opacity="0.1"/>
<rect width="1579.4" height="2.72378" transform="matrix(0.934812 -0.355142 0.934812 0.355142 412.344 725.242)" fill="white" fill-opacity="0.1"/>
<rect width="1579.4" height="2.72378" transform="matrix(0.934812 -0.355142 0.934812 0.355142 691.585 821.951)" fill="white" fill-opacity="0.1"/>
<rect width="1579.4" height="2.72378" transform="matrix(0.934812 -0.355142 0.934812 0.355142 666.903 821.951)" fill="white" fill-opacity="0.1"/>
<rect width="1579.4" height="2.72378" transform="matrix(0.934812 -0.355142 0.934812 0.355142 -708.486 290.053)" fill="white" fill-opacity="0.1"/>
<rect width="1579.4" height="2.72378" transform="matrix(0.934812 -0.355142 0.934812 0.355142 -733.168 290.053)" fill="white" fill-opacity="0.1"/>
<rect width="1579.4" height="2.72378" transform="matrix(0.934812 -0.355142 0.934812 0.355142 -403.014 406.104)" fill="white" fill-opacity="0.1"/>
<rect width="1579.4" height="2.72378" transform="matrix(0.934812 -0.355142 0.934812 0.355142 -427.697 406.104)" fill="white" fill-opacity="0.1"/>
<rect width="1579.4" height="2.72378" transform="matrix(0.934812 -0.355142 0.934812 0.355142 -97.5461 522.154)" fill="white" fill-opacity="0.1"/>
<rect width="1579.4" height="2.72378" transform="matrix(0.934812 -0.355142 0.934812 0.355142 -122.229 522.154)" fill="white" fill-opacity="0.1"/>
<rect width="1579.4" height="2.72378" transform="matrix(0.934812 -0.355142 0.934812 0.355142 -555.75 348.079)" fill="white" fill-opacity="0.1"/>
<rect width="1579.4" height="2.72378" transform="matrix(0.934812 -0.355142 0.934812 0.355142 -580.432 348.079)" fill="white" fill-opacity="0.1"/>
<rect width="1579.4" height="2.72378" transform="matrix(0.934812 -0.355142 0.934812 0.355142 -250.281 464.128)" fill="white" fill-opacity="0.1"/>
<rect width="1579.4" height="2.72378" transform="matrix(0.934812 -0.355142 0.934812 0.355142 -274.964 464.128)" fill="white" fill-opacity="0.1"/>
<rect width="1579.4" height="2.72378" transform="matrix(0.934812 -0.355142 0.934812 0.355142 55.1895 580.179)" fill="white" fill-opacity="0.1"/>
<rect width="1579.4" height="2.72378" transform="matrix(0.934812 -0.355142 0.934812 0.355142 30.5073 580.179)" fill="white" fill-opacity="0.1"/>
<rect width="1579.4" height="2.72378" transform="matrix(0.934812 -0.355142 0.934812 0.355142 309.749 676.888)" fill="white" fill-opacity="0.1"/>
<rect width="1579.4" height="2.72378" transform="matrix(0.934812 -0.355142 0.934812 0.355142 285.067 676.888)" fill="white" fill-opacity="0.1"/>
<rect width="1579.4" height="2.72378" transform="matrix(0.934812 -0.355142 0.934812 0.355142 564.306 773.596)" fill="white" fill-opacity="0.1"/>
<rect width="1579.4" height="2.72378" transform="matrix(0.934812 -0.355142 0.934812 0.355142 539.623 773.596)" fill="white" fill-opacity="0.1"/>
<rect width="1579.4" height="2.72378" transform="matrix(0.934812 -0.355142 0.934812 0.355142 -632.118 319.066)" fill="white" fill-opacity="0.1"/>
<rect width="1579.4" height="2.72378" transform="matrix(0.934812 -0.355142 0.934812 0.355142 -656.8 319.066)" fill="white" fill-opacity="0.1"/>
<rect width="1579.4" height="2.72378" transform="matrix(0.934812 -0.355142 0.934812 0.355142 -326.649 435.116)" fill="white" fill-opacity="0.1"/>
<rect width="1579.4" height="2.72378" transform="matrix(0.934812 -0.355142 0.934812 0.355142 -351.332 435.116)" fill="white" fill-opacity="0.1"/>
<rect width="1579.4" height="2.72378" transform="matrix(0.934812 -0.355142 0.934812 0.355142 -21.1785 551.167)" fill="white" fill-opacity="0.1"/>
<rect width="1579.4" height="2.72378" transform="matrix(0.934812 -0.355142 0.934812 0.355142 -45.8606 551.167)" fill="white" fill-opacity="0.1"/>
<rect width="1579.4" height="2.72378" transform="matrix(0.934812 -0.355142 0.934812 0.355142 -479.382 377.091)" fill="white" fill-opacity="0.1"/>
<rect width="1579.4" height="2.72378" transform="matrix(0.934812 -0.355142 0.934812 0.355142 -504.065 377.091)" fill="white" fill-opacity="0.1"/>
<rect width="1579.4" height="2.72378" transform="matrix(0.934812 -0.355142 0.934812 0.355142 -173.914 493.141)" fill="white" fill-opacity="0.1"/>
<rect width="1579.4" height="2.72378" transform="matrix(0.934812 -0.355142 0.934812 0.355142 -198.596 493.141)" fill="white" fill-opacity="0.1"/>
<rect width="1579.4" height="2.72378" transform="matrix(0.934812 -0.355142 0.934812 0.355142 131.557 609.192)" fill="white" fill-opacity="0.1"/>
<rect width="1579.4" height="2.72378" transform="matrix(0.934812 -0.355142 0.934812 0.355142 106.875 609.192)" fill="white" fill-opacity="0.1"/>
<rect width="1579.4" height="2.72378" transform="matrix(0.934812 -0.355142 0.934812 0.355142 386.114 705.9)" fill="white" fill-opacity="0.1"/>
<rect width="1579.4" height="2.72378" transform="matrix(0.934812 -0.355142 0.934812 0.355142 361.432 705.9)" fill="white" fill-opacity="0.1"/>
<rect width="1579.4" height="2.72378" transform="matrix(0.934812 -0.355142 0.934812 0.355142 640.674 802.609)" fill="white" fill-opacity="0.1"/>
<rect width="1579.4" height="2.72378" transform="matrix(0.934812 -0.355142 0.934812 0.355142 615.991 802.609)" fill="white" fill-opacity="0.1"/>
<rect width="1579.4" height="2.72378" transform="matrix(0.934812 -0.355142 0.934812 0.355142 207.925 638.205)" fill="white" fill-opacity="0.1"/>
<rect width="1579.4" height="2.72378" transform="matrix(0.934812 -0.355142 0.934812 0.355142 183.243 638.205)" fill="white" fill-opacity="0.1"/>
<rect width="1579.4" height="2.72378" transform="matrix(0.934812 -0.355142 0.934812 0.355142 462.482 734.913)" fill="white" fill-opacity="0.1"/>
<rect width="1579.4" height="2.72378" transform="matrix(0.934812 -0.355142 0.934812 0.355142 437.799 734.913)" fill="white" fill-opacity="0.1"/>
<rect width="1579.4" height="2.72378" transform="matrix(0.934812 -0.355142 0.934812 0.355142 717.041 831.622)" fill="white" fill-opacity="0.1"/>
<rect width="1579.4" height="2.72378" transform="matrix(0.934812 -0.355142 0.934812 0.355142 692.359 831.622)" fill="white" fill-opacity="0.1"/>
<rect width="1579.4" height="2.72378" transform="matrix(0.934812 -0.355142 0.934812 0.355142 233.381 647.876)" fill="white" fill-opacity="0.1"/>
<rect width="1579.4" height="2.72378" transform="matrix(0.934812 -0.355142 0.934812 0.355142 208.699 647.876)" fill="white" fill-opacity="0.1"/>
<rect width="1579.4" height="2.72378" transform="matrix(0.934812 -0.355142 0.934812 0.355142 487.938 744.584)" fill="white" fill-opacity="0.1"/>
<rect width="1579.4" height="2.72378" transform="matrix(0.934812 -0.355142 0.934812 0.355142 463.255 744.583)" fill="white" fill-opacity="0.1"/>
<rect width="1579.4" height="2.72378" transform="matrix(0.934812 -0.355142 0.934812 0.355142 742.497 841.293)" fill="white" fill-opacity="0.1"/>
<rect width="1579.4" height="2.72378" transform="matrix(0.934812 -0.355142 0.934812 0.355142 717.815 841.292)" fill="white" fill-opacity="0.1"/>
</g>
</g>
<ellipse cx="1169" cy="257.033" rx="500" ry="367.033" fill="#FBFBFB"/>
</g>
</svg>
