<svg width="870" height="450" viewBox="0 0 870 450" fill="none" xmlns="http://www.w3.org/2000/svg">
<rect x="-270" width="1140" height="450" rx="225" fill="#70033E"/>
<mask id="mask0" mask-type="alpha" maskUnits="userSpaceOnUse" x="-270" y="0" width="1140" height="450">
<rect x="-270" width="1140" height="450" rx="225" fill="#70033E"/>
</mask>
<g mask="url(#mask0)">
<mask id="mask1" mask-type="alpha" maskUnits="userSpaceOnUse" x="-811" y="-210" width="2000" height="930">
<rect x="-811" y="-210" width="2000" height="929" fill="#70033E"/>
</mask>
<g mask="url(#mask1)">
<rect width="2261.03" height="3.89931" transform="matrix(0.906935 -0.421271 0.906935 0.421271 -1865.72 249.708)" fill="white" fill-opacity="0.1"/>
<rect width="2261.03" height="3.89931" transform="matrix(0.906935 -0.421271 0.906935 0.421271 -1900 249.708)" fill="white" fill-opacity="0.1"/>
<rect width="2261.03" height="3.89931" transform="matrix(0.906935 -0.421271 0.906935 0.421271 -1441.45 446.78)" fill="white" fill-opacity="0.1"/>
<rect width="2261.03" height="3.89931" transform="matrix(0.906935 -0.421271 0.906935 0.421271 -1475.73 446.78)" fill="white" fill-opacity="0.1"/>
<rect width="2261.03" height="3.89931" transform="matrix(0.906935 -0.421271 0.906935 0.421271 -1017.19 643.85)" fill="white" fill-opacity="0.1"/>
<rect width="2261.03" height="3.89931" transform="matrix(0.906935 -0.421271 0.906935 0.421271 -1051.47 643.85)" fill="white" fill-opacity="0.1"/>
<rect width="2261.03" height="3.89931" transform="matrix(0.906935 -0.421271 0.906935 0.421271 -1653.59 348.244)" fill="white" fill-opacity="0.1"/>
<rect width="2261.03" height="3.89931" transform="matrix(0.906935 -0.421271 0.906935 0.421271 -1687.87 348.244)" fill="white" fill-opacity="0.1"/>
<rect width="2261.03" height="3.89931" transform="matrix(0.906935 -0.421271 0.906935 0.421271 -1229.32 545.314)" fill="white" fill-opacity="0.1"/>
<rect width="2261.03" height="3.89931" transform="matrix(0.906935 -0.421271 0.906935 0.421271 -1263.61 545.314)" fill="white" fill-opacity="0.1"/>
<rect width="2261.03" height="3.89931" transform="matrix(0.906935 -0.421271 0.906935 0.421271 -805.059 742.385)" fill="white" fill-opacity="0.1"/>
<rect width="2261.03" height="3.89931" transform="matrix(0.906935 -0.421271 0.906935 0.421271 -839.34 742.385)" fill="white" fill-opacity="0.1"/>
<rect width="2261.03" height="3.89931" transform="matrix(0.906935 -0.421271 0.906935 0.421271 -451.504 906.611)" fill="white" fill-opacity="0.1"/>
<rect width="2261.03" height="3.89931" transform="matrix(0.906935 -0.421271 0.906935 0.421271 -485.785 906.611)" fill="white" fill-opacity="0.1"/>
<rect width="2261.03" height="3.89931" transform="matrix(0.906935 -0.421271 0.906935 0.421271 -97.9529 1070.84)" fill="white" fill-opacity="0.1"/>
<rect width="2261.03" height="3.89931" transform="matrix(0.906935 -0.421271 0.906935 0.421271 -132.234 1070.84)" fill="white" fill-opacity="0.1"/>
<rect width="2261.03" height="3.89931" transform="matrix(0.906935 -0.421271 0.906935 0.421271 -1759.65 298.976)" fill="white" fill-opacity="0.1"/>
<rect width="2261.03" height="3.89931" transform="matrix(0.906935 -0.421271 0.906935 0.421271 -1793.93 298.976)" fill="white" fill-opacity="0.1"/>
<rect width="2261.03" height="3.89931" transform="matrix(0.906935 -0.421271 0.906935 0.421271 -1335.39 496.046)" fill="white" fill-opacity="0.1"/>
<rect width="2261.03" height="3.89931" transform="matrix(0.906935 -0.421271 0.906935 0.421271 -1369.67 496.046)" fill="white" fill-opacity="0.1"/>
<rect width="2261.03" height="3.89931" transform="matrix(0.906935 -0.421271 0.906935 0.421271 -911.125 693.117)" fill="white" fill-opacity="0.1"/>
<rect width="2261.03" height="3.89931" transform="matrix(0.906935 -0.421271 0.906935 0.421271 -945.406 693.118)" fill="white" fill-opacity="0.1"/>
<rect width="2261.03" height="3.89931" transform="matrix(0.906935 -0.421271 0.906935 0.421271 -1547.52 397.512)" fill="white" fill-opacity="0.1"/>
<rect width="2261.03" height="3.89931" transform="matrix(0.906935 -0.421271 0.906935 0.421271 -1581.8 397.512)" fill="white" fill-opacity="0.1"/>
<rect width="2261.03" height="3.89931" transform="matrix(0.906935 -0.421271 0.906935 0.421271 -1123.26 594.582)" fill="white" fill-opacity="0.1"/>
<rect width="2261.03" height="3.89931" transform="matrix(0.906935 -0.421271 0.906935 0.421271 -1157.54 594.582)" fill="white" fill-opacity="0.1"/>
<rect width="2261.03" height="3.89931" transform="matrix(0.906935 -0.421271 0.906935 0.421271 -698.992 791.653)" fill="white" fill-opacity="0.1"/>
<rect width="2261.03" height="3.89931" transform="matrix(0.906935 -0.421271 0.906935 0.421271 -733.273 791.653)" fill="white" fill-opacity="0.1"/>
<rect width="2261.03" height="3.89931" transform="matrix(0.906935 -0.421271 0.906935 0.421271 -345.437 955.879)" fill="white" fill-opacity="0.1"/>
<rect width="2261.03" height="3.89931" transform="matrix(0.906935 -0.421271 0.906935 0.421271 -379.719 955.879)" fill="white" fill-opacity="0.1"/>
<rect width="2261.03" height="3.89931" transform="matrix(0.906935 -0.421271 0.906935 0.421271 8.11356 1120.1)" fill="white" fill-opacity="0.1"/>
<rect width="2261.03" height="3.89931" transform="matrix(0.906935 -0.421271 0.906935 0.421271 -26.1676 1120.1)" fill="white" fill-opacity="0.1"/>
<rect width="2261.03" height="3.89931" transform="matrix(0.906935 -0.421271 0.906935 0.421271 -592.926 840.921)" fill="white" fill-opacity="0.1"/>
<rect width="2261.03" height="3.89931" transform="matrix(0.906935 -0.421271 0.906935 0.421271 -627.207 840.921)" fill="white" fill-opacity="0.1"/>
<rect width="2261.03" height="3.89931" transform="matrix(0.906935 -0.421271 0.906935 0.421271 -239.375 1005.15)" fill="white" fill-opacity="0.1"/>
<rect width="2261.03" height="3.89931" transform="matrix(0.906935 -0.421271 0.906935 0.421271 -273.656 1005.15)" fill="white" fill-opacity="0.1"/>
<rect width="2261.03" height="3.89931" transform="matrix(0.906935 -0.421271 0.906935 0.421271 114.18 1169.37)" fill="white" fill-opacity="0.1"/>
<rect width="2261.03" height="3.89931" transform="matrix(0.906935 -0.421271 0.906935 0.421271 79.8985 1169.37)" fill="white" fill-opacity="0.1"/>
<rect width="2261.03" height="3.89931" transform="matrix(0.906935 -0.421271 0.906935 0.421271 -1830.36 266.131)" fill="white" fill-opacity="0.1"/>
<rect width="2261.03" height="3.89931" transform="matrix(0.906935 -0.421271 0.906935 0.421271 -1864.64 266.131)" fill="white" fill-opacity="0.1"/>
<rect width="2261.03" height="3.89931" transform="matrix(0.906935 -0.421271 0.906935 0.421271 -1406.1 463.203)" fill="white" fill-opacity="0.1"/>
<rect width="2261.03" height="3.89931" transform="matrix(0.906935 -0.421271 0.906935 0.421271 -1440.38 463.202)" fill="white" fill-opacity="0.1"/>
<rect width="2261.03" height="3.89931" transform="matrix(0.906935 -0.421271 0.906935 0.421271 -981.836 660.272)" fill="white" fill-opacity="0.1"/>
<rect width="2261.03" height="3.89931" transform="matrix(0.906935 -0.421271 0.906935 0.421271 -1016.12 660.272)" fill="white" fill-opacity="0.1"/>
<rect width="2261.03" height="3.89931" transform="matrix(0.906935 -0.421271 0.906935 0.421271 -1618.23 364.667)" fill="white" fill-opacity="0.1"/>
<rect width="2261.03" height="3.89931" transform="matrix(0.906935 -0.421271 0.906935 0.421271 -1652.51 364.667)" fill="white" fill-opacity="0.1"/>
<rect width="2261.03" height="3.89931" transform="matrix(0.906935 -0.421271 0.906935 0.421271 -1193.97 561.736)" fill="white" fill-opacity="0.1"/>
<rect width="2261.03" height="3.89931" transform="matrix(0.906935 -0.421271 0.906935 0.421271 -1228.25 561.736)" fill="white" fill-opacity="0.1"/>
<rect width="2261.03" height="3.89931" transform="matrix(0.906935 -0.421271 0.906935 0.421271 -769.703 758.808)" fill="white" fill-opacity="0.1"/>
<rect width="2261.03" height="3.89931" transform="matrix(0.906935 -0.421271 0.906935 0.421271 -803.984 758.808)" fill="white" fill-opacity="0.1"/>
<rect width="2261.03" height="3.89931" transform="matrix(0.906935 -0.421271 0.906935 0.421271 -416.148 923.034)" fill="white" fill-opacity="0.1"/>
<rect width="2261.03" height="3.89931" transform="matrix(0.906935 -0.421271 0.906935 0.421271 -450.43 923.034)" fill="white" fill-opacity="0.1"/>
<rect width="2261.03" height="3.89931" transform="matrix(0.906935 -0.421271 0.906935 0.421271 -62.5974 1087.26)" fill="white" fill-opacity="0.1"/>
<rect width="2261.03" height="3.89931" transform="matrix(0.906935 -0.421271 0.906935 0.421271 -96.8786 1087.26)" fill="white" fill-opacity="0.1"/>
<rect width="2261.03" height="3.89931" transform="matrix(0.906935 -0.421271 0.906935 0.421271 -1724.3 315.399)" fill="white" fill-opacity="0.1"/>
<rect width="2261.03" height="3.89931" transform="matrix(0.906935 -0.421271 0.906935 0.421271 -1758.58 315.399)" fill="white" fill-opacity="0.1"/>
<rect width="2261.03" height="3.89931" transform="matrix(0.906935 -0.421271 0.906935 0.421271 -1300.04 512.469)" fill="white" fill-opacity="0.1"/>
<rect width="2261.03" height="3.89931" transform="matrix(0.906935 -0.421271 0.906935 0.421271 -1334.32 512.469)" fill="white" fill-opacity="0.1"/>
<rect width="2261.03" height="3.89931" transform="matrix(0.906935 -0.421271 0.906935 0.421271 -875.769 709.54)" fill="white" fill-opacity="0.1"/>
<rect width="2261.03" height="3.89931" transform="matrix(0.906935 -0.421271 0.906935 0.421271 -910.051 709.54)" fill="white" fill-opacity="0.1"/>
<rect width="2261.03" height="3.89931" transform="matrix(0.906935 -0.421271 0.906935 0.421271 -1512.16 413.935)" fill="white" fill-opacity="0.1"/>
<rect width="2261.03" height="3.89931" transform="matrix(0.906935 -0.421271 0.906935 0.421271 -1546.45 413.934)" fill="white" fill-opacity="0.1"/>
<rect width="2261.03" height="3.89931" transform="matrix(0.906935 -0.421271 0.906935 0.421271 -1087.9 611.004)" fill="white" fill-opacity="0.1"/>
<rect width="2261.03" height="3.89931" transform="matrix(0.906935 -0.421271 0.906935 0.421271 -1122.18 611.004)" fill="white" fill-opacity="0.1"/>
<rect width="2261.03" height="3.89931" transform="matrix(0.906935 -0.421271 0.906935 0.421271 -663.637 808.076)" fill="white" fill-opacity="0.1"/>
<rect width="2261.03" height="3.89931" transform="matrix(0.906935 -0.421271 0.906935 0.421271 -697.918 808.076)" fill="white" fill-opacity="0.1"/>
<rect width="2261.03" height="3.89931" transform="matrix(0.906935 -0.421271 0.906935 0.421271 -310.082 972.302)" fill="white" fill-opacity="0.1"/>
<rect width="2261.03" height="3.89931" transform="matrix(0.906935 -0.421271 0.906935 0.421271 -344.363 972.302)" fill="white" fill-opacity="0.1"/>
<rect width="2261.03" height="3.89931" transform="matrix(0.906935 -0.421271 0.906935 0.421271 43.4693 1136.53)" fill="white" fill-opacity="0.1"/>
<rect width="2261.03" height="3.89931" transform="matrix(0.906935 -0.421271 0.906935 0.421271 9.18779 1136.53)" fill="white" fill-opacity="0.1"/>
<rect width="2261.03" height="3.89931" transform="matrix(0.906935 -0.421271 0.906935 0.421271 -557.57 857.344)" fill="white" fill-opacity="0.1"/>
<rect width="2261.03" height="3.89931" transform="matrix(0.906935 -0.421271 0.906935 0.421271 -591.851 857.344)" fill="white" fill-opacity="0.1"/>
<rect width="2261.03" height="3.89931" transform="matrix(0.906935 -0.421271 0.906935 0.421271 -204.019 1021.57)" fill="white" fill-opacity="0.1"/>
<rect width="2261.03" height="3.89931" transform="matrix(0.906935 -0.421271 0.906935 0.421271 -238.3 1021.57)" fill="white" fill-opacity="0.1"/>
<rect width="2261.03" height="3.89931" transform="matrix(0.906935 -0.421271 0.906935 0.421271 149.535 1185.79)" fill="white" fill-opacity="0.1"/>
<rect width="2261.03" height="3.89931" transform="matrix(0.906935 -0.421271 0.906935 0.421271 115.254 1185.79)" fill="white" fill-opacity="0.1"/>
<rect width="2261.03" height="3.89931" transform="matrix(0.906935 -0.421271 0.906935 0.421271 -1795.01 282.554)" fill="white" fill-opacity="0.1"/>
<rect width="2261.03" height="3.89931" transform="matrix(0.906935 -0.421271 0.906935 0.421271 -1829.29 282.554)" fill="white" fill-opacity="0.1"/>
<rect width="2261.03" height="3.89931" transform="matrix(0.906935 -0.421271 0.906935 0.421271 -1370.74 479.625)" fill="white" fill-opacity="0.1"/>
<rect width="2261.03" height="3.89931" transform="matrix(0.906935 -0.421271 0.906935 0.421271 -1405.02 479.625)" fill="white" fill-opacity="0.1"/>
<rect width="2261.03" height="3.89931" transform="matrix(0.906935 -0.421271 0.906935 0.421271 -946.48 676.695)" fill="white" fill-opacity="0.1"/>
<rect width="2261.03" height="3.89931" transform="matrix(0.906935 -0.421271 0.906935 0.421271 -980.761 676.695)" fill="white" fill-opacity="0.1"/>
<rect width="2261.03" height="3.89931" transform="matrix(0.906935 -0.421271 0.906935 0.421271 -1582.87 381.089)" fill="white" fill-opacity="0.1"/>
<rect width="2261.03" height="3.89931" transform="matrix(0.906935 -0.421271 0.906935 0.421271 -1617.16 381.089)" fill="white" fill-opacity="0.1"/>
<rect width="2261.03" height="3.89931" transform="matrix(0.906935 -0.421271 0.906935 0.421271 -1158.61 578.159)" fill="white" fill-opacity="0.1"/>
<rect width="2261.03" height="3.89931" transform="matrix(0.906935 -0.421271 0.906935 0.421271 -1192.89 578.159)" fill="white" fill-opacity="0.1"/>
<rect width="2261.03" height="3.89931" transform="matrix(0.906935 -0.421271 0.906935 0.421271 -734.348 775.23)" fill="white" fill-opacity="0.1"/>
<rect width="2261.03" height="3.89931" transform="matrix(0.906935 -0.421271 0.906935 0.421271 -768.629 775.23)" fill="white" fill-opacity="0.1"/>
<rect width="2261.03" height="3.89931" transform="matrix(0.906935 -0.421271 0.906935 0.421271 -380.793 939.457)" fill="white" fill-opacity="0.1"/>
<rect width="2261.03" height="3.89931" transform="matrix(0.906935 -0.421271 0.906935 0.421271 -415.074 939.457)" fill="white" fill-opacity="0.1"/>
<rect width="2261.03" height="3.89931" transform="matrix(0.906935 -0.421271 0.906935 0.421271 -27.2418 1103.68)" fill="white" fill-opacity="0.1"/>
<rect width="2261.03" height="3.89931" transform="matrix(0.906935 -0.421271 0.906935 0.421271 -61.5232 1103.68)" fill="white" fill-opacity="0.1"/>
<rect width="2261.03" height="3.89931" transform="matrix(0.906935 -0.421271 0.906935 0.421271 -1688.94 331.822)" fill="white" fill-opacity="0.1"/>
<rect width="2261.03" height="3.89931" transform="matrix(0.906935 -0.421271 0.906935 0.421271 -1723.22 331.822)" fill="white" fill-opacity="0.1"/>
<rect width="2261.03" height="3.89931" transform="matrix(0.906935 -0.421271 0.906935 0.421271 -1264.68 528.891)" fill="white" fill-opacity="0.1"/>
<rect width="2261.03" height="3.89931" transform="matrix(0.906935 -0.421271 0.906935 0.421271 -1298.96 528.891)" fill="white" fill-opacity="0.1"/>
<rect width="2261.03" height="3.89931" transform="matrix(0.906935 -0.421271 0.906935 0.421271 -840.414 725.962)" fill="white" fill-opacity="0.1"/>
<rect width="2261.03" height="3.89931" transform="matrix(0.906935 -0.421271 0.906935 0.421271 -874.695 725.962)" fill="white" fill-opacity="0.1"/>
<rect width="2261.03" height="3.89931" transform="matrix(0.906935 -0.421271 0.906935 0.421271 -1476.81 430.357)" fill="white" fill-opacity="0.1"/>
<rect width="2261.03" height="3.89931" transform="matrix(0.906935 -0.421271 0.906935 0.421271 -1511.09 430.357)" fill="white" fill-opacity="0.1"/>
<rect width="2261.03" height="3.89931" transform="matrix(0.906935 -0.421271 0.906935 0.421271 -1052.55 627.427)" fill="white" fill-opacity="0.1"/>
<rect width="2261.03" height="3.89931" transform="matrix(0.906935 -0.421271 0.906935 0.421271 -1086.83 627.427)" fill="white" fill-opacity="0.1"/>
<rect width="2261.03" height="3.89931" transform="matrix(0.906935 -0.421271 0.906935 0.421271 -628.281 824.499)" fill="white" fill-opacity="0.1"/>
<rect width="2261.03" height="3.89931" transform="matrix(0.906935 -0.421271 0.906935 0.421271 -662.562 824.499)" fill="white" fill-opacity="0.1"/>
<rect width="2261.03" height="3.89931" transform="matrix(0.906935 -0.421271 0.906935 0.421271 -274.73 988.723)" fill="white" fill-opacity="0.1"/>
<rect width="2261.03" height="3.89931" transform="matrix(0.906935 -0.421271 0.906935 0.421271 -309.011 988.723)" fill="white" fill-opacity="0.1"/>
<rect width="2261.03" height="3.89931" transform="matrix(0.906935 -0.421271 0.906935 0.421271 78.8247 1152.95)" fill="white" fill-opacity="0.1"/>
<rect width="2261.03" height="3.89931" transform="matrix(0.906935 -0.421271 0.906935 0.421271 44.5432 1152.95)" fill="white" fill-opacity="0.1"/>
<rect width="2261.03" height="3.89931" transform="matrix(0.906935 -0.421271 0.906935 0.421271 -522.215 873.767)" fill="white" fill-opacity="0.1"/>
<rect width="2261.03" height="3.89931" transform="matrix(0.906935 -0.421271 0.906935 0.421271 -556.496 873.766)" fill="white" fill-opacity="0.1"/>
<rect width="2261.03" height="3.89931" transform="matrix(0.906935 -0.421271 0.906935 0.421271 -168.664 1037.99)" fill="white" fill-opacity="0.1"/>
<rect width="2261.03" height="3.89931" transform="matrix(0.906935 -0.421271 0.906935 0.421271 -202.945 1037.99)" fill="white" fill-opacity="0.1"/>
<rect width="2261.03" height="3.89931" transform="matrix(0.906935 -0.421271 0.906935 0.421271 184.891 1202.22)" fill="white" fill-opacity="0.1"/>
<rect width="2261.03" height="3.89931" transform="matrix(0.906935 -0.421271 0.906935 0.421271 150.609 1202.22)" fill="white" fill-opacity="0.1"/>
<rect width="2261.03" height="3.89931" transform="matrix(0.906935 -0.421271 0.906935 0.421271 -486.859 890.189)" fill="white" fill-opacity="0.1"/>
<rect width="2261.03" height="3.89931" transform="matrix(0.906935 -0.421271 0.906935 0.421271 -521.14 890.189)" fill="white" fill-opacity="0.1"/>
<rect width="2261.03" height="3.89931" transform="matrix(0.906935 -0.421271 0.906935 0.421271 -133.308 1054.41)" fill="white" fill-opacity="0.1"/>
<rect width="2261.03" height="3.89931" transform="matrix(0.906935 -0.421271 0.906935 0.421271 -167.59 1054.41)" fill="white" fill-opacity="0.1"/>
<rect width="2261.03" height="3.89931" transform="matrix(0.906935 -0.421271 0.906935 0.421271 220.247 1218.64)" fill="white" fill-opacity="0.1"/>
<rect width="2261.03" height="3.89931" transform="matrix(0.906935 -0.421271 0.906935 0.421271 185.965 1218.64)" fill="white" fill-opacity="0.1"/>
</g>
</g>
</svg>
