<svg width="1439" height="600" viewBox="0 0 1439 600" fill="none" xmlns="http://www.w3.org/2000/svg">
<path d="M-1 27.4427C558.5 -67.8719 892.5 123.442 1439 27.4427V576.014C897.5 669.271 561 450.871 -1 576.014V27.4427Z" fill="#70033E"/>
<mask id="mask0" mask-type="alpha" maskUnits="userSpaceOnUse" x="-1" y="0" width="1440" height="600">
<mask id="mask1" maskUnits="userSpaceOnUse" x="-1" y="0" width="1440" height="600">
<rect x="-1" width="1440" height="600" fill="#70033E"/>
</mask>
<g mask="url(#mask1)">
<rect width="1599.48" height="2.75841" transform="matrix(0.923077 -0.384615 0.923077 0.384615 -760.397 296.905)" fill="white" fill-opacity="0.1"/>
<rect width="1599.48" height="2.75841" transform="matrix(0.923077 -0.384615 0.923077 0.384615 -785.078 296.904)" fill="white" fill-opacity="0.1"/>
<rect width="1599.48" height="2.75841" transform="matrix(0.923077 -0.384615 0.923077 0.384615 -454.926 424.185)" fill="white" fill-opacity="0.1"/>
<rect width="1599.48" height="2.75841" transform="matrix(0.923077 -0.384615 0.923077 0.384615 -479.608 424.185)" fill="white" fill-opacity="0.1"/>
<rect width="1599.48" height="2.75841" transform="matrix(0.923077 -0.384615 0.923077 0.384615 -149.458 551.463)" fill="white" fill-opacity="0.1"/>
<rect width="1599.48" height="2.75841" transform="matrix(0.923077 -0.384615 0.923077 0.384615 -174.14 551.463)" fill="white" fill-opacity="0.1"/>
<rect width="1599.48" height="2.75841" transform="matrix(0.923077 -0.384615 0.923077 0.384615 -607.661 360.545)" fill="white" fill-opacity="0.1"/>
<rect width="1599.48" height="2.75841" transform="matrix(0.923077 -0.384615 0.923077 0.384615 -632.344 360.545)" fill="white" fill-opacity="0.1"/>
<rect width="1599.48" height="2.75841" transform="matrix(0.923077 -0.384615 0.923077 0.384615 -302.193 487.823)" fill="white" fill-opacity="0.1"/>
<rect width="1599.48" height="2.75841" transform="matrix(0.923077 -0.384615 0.923077 0.384615 -326.875 487.823)" fill="white" fill-opacity="0.1"/>
<rect width="1599.48" height="2.75841" transform="matrix(0.923077 -0.384615 0.923077 0.384615 3.27802 615.103)" fill="white" fill-opacity="0.1"/>
<rect width="1599.48" height="2.75841" transform="matrix(0.923077 -0.384615 0.923077 0.384615 -21.4042 615.103)" fill="white" fill-opacity="0.1"/>
<rect width="1599.48" height="2.75841" transform="matrix(0.923077 -0.384615 0.923077 0.384615 257.837 721.169)" fill="white" fill-opacity="0.1"/>
<rect width="1599.48" height="2.75841" transform="matrix(0.923077 -0.384615 0.923077 0.384615 233.155 721.169)" fill="white" fill-opacity="0.1"/>
<rect width="1599.48" height="2.75841" transform="matrix(0.923077 -0.384615 0.923077 0.384615 512.394 827.235)" fill="white" fill-opacity="0.1"/>
<rect width="1599.48" height="2.75841" transform="matrix(0.923077 -0.384615 0.923077 0.384615 487.712 827.235)" fill="white" fill-opacity="0.1"/>
<rect width="1599.48" height="2.75841" transform="matrix(0.923077 -0.384615 0.923077 0.384615 -684.029 328.725)" fill="white" fill-opacity="0.1"/>
<rect width="1599.48" height="2.75841" transform="matrix(0.923077 -0.384615 0.923077 0.384615 -708.712 328.725)" fill="white" fill-opacity="0.1"/>
<rect width="1599.48" height="2.75841" transform="matrix(0.923077 -0.384615 0.923077 0.384615 -378.561 456.003)" fill="white" fill-opacity="0.1"/>
<rect width="1599.48" height="2.75841" transform="matrix(0.923077 -0.384615 0.923077 0.384615 -403.243 456.003)" fill="white" fill-opacity="0.1"/>
<rect width="1599.48" height="2.75841" transform="matrix(0.923077 -0.384615 0.923077 0.384615 -73.0898 583.283)" fill="white" fill-opacity="0.1"/>
<rect width="1599.48" height="2.75841" transform="matrix(0.923077 -0.384615 0.923077 0.384615 -97.772 583.283)" fill="white" fill-opacity="0.1"/>
<rect width="1599.48" height="2.75841" transform="matrix(0.923077 -0.384615 0.923077 0.384615 -531.294 392.365)" fill="white" fill-opacity="0.1"/>
<rect width="1599.48" height="2.75841" transform="matrix(0.923077 -0.384615 0.923077 0.384615 -555.976 392.365)" fill="white" fill-opacity="0.1"/>
<rect width="1599.48" height="2.75841" transform="matrix(0.923077 -0.384615 0.923077 0.384615 -225.825 519.643)" fill="white" fill-opacity="0.1"/>
<rect width="1599.48" height="2.75841" transform="matrix(0.923077 -0.384615 0.923077 0.384615 -250.508 519.643)" fill="white" fill-opacity="0.1"/>
<rect width="1599.48" height="2.75841" transform="matrix(0.923077 -0.384615 0.923077 0.384615 79.6458 646.923)" fill="white" fill-opacity="0.1"/>
<rect width="1599.48" height="2.75841" transform="matrix(0.923077 -0.384615 0.923077 0.384615 54.9636 646.923)" fill="white" fill-opacity="0.1"/>
<rect width="1599.48" height="2.75841" transform="matrix(0.923077 -0.384615 0.923077 0.384615 334.206 752.99)" fill="white" fill-opacity="0.1"/>
<rect width="1599.48" height="2.75841" transform="matrix(0.923077 -0.384615 0.923077 0.384615 309.523 752.99)" fill="white" fill-opacity="0.1"/>
<rect width="1599.48" height="2.75841" transform="matrix(0.923077 -0.384615 0.923077 0.384615 588.762 859.054)" fill="white" fill-opacity="0.1"/>
<rect width="1599.48" height="2.75841" transform="matrix(0.923077 -0.384615 0.923077 0.384615 564.079 859.055)" fill="white" fill-opacity="0.1"/>
<rect width="1599.48" height="2.75841" transform="matrix(0.923077 -0.384615 0.923077 0.384615 156.014 678.743)" fill="white" fill-opacity="0.1"/>
<rect width="1599.48" height="2.75841" transform="matrix(0.923077 -0.384615 0.923077 0.384615 131.331 678.743)" fill="white" fill-opacity="0.1"/>
<rect width="1599.48" height="2.75841" transform="matrix(0.923077 -0.384615 0.923077 0.384615 410.571 784.808)" fill="white" fill-opacity="0.1"/>
<rect width="1599.48" height="2.75841" transform="matrix(0.923077 -0.384615 0.923077 0.384615 385.888 784.808)" fill="white" fill-opacity="0.1"/>
<rect width="1599.48" height="2.75841" transform="matrix(0.923077 -0.384615 0.923077 0.384615 665.13 890.875)" fill="white" fill-opacity="0.1"/>
<rect width="1599.48" height="2.75841" transform="matrix(0.923077 -0.384615 0.923077 0.384615 640.447 890.875)" fill="white" fill-opacity="0.1"/>
<rect width="1599.48" height="2.75841" transform="matrix(0.923077 -0.384615 0.923077 0.384615 -734.941 307.512)" fill="white" fill-opacity="0.1"/>
<rect width="1599.48" height="2.75841" transform="matrix(0.923077 -0.384615 0.923077 0.384615 -759.624 307.512)" fill="white" fill-opacity="0.1"/>
<rect width="1599.48" height="2.75841" transform="matrix(0.923077 -0.384615 0.923077 0.384615 -429.47 434.792)" fill="white" fill-opacity="0.1"/>
<rect width="1599.48" height="2.75841" transform="matrix(0.923077 -0.384615 0.923077 0.384615 -454.152 434.792)" fill="white" fill-opacity="0.1"/>
<rect width="1599.48" height="2.75841" transform="matrix(0.923077 -0.384615 0.923077 0.384615 -124.002 562.07)" fill="white" fill-opacity="0.1"/>
<rect width="1599.48" height="2.75841" transform="matrix(0.923077 -0.384615 0.923077 0.384615 -148.684 562.07)" fill="white" fill-opacity="0.1"/>
<rect width="1599.48" height="2.75841" transform="matrix(0.923077 -0.384615 0.923077 0.384615 -582.206 371.152)" fill="white" fill-opacity="0.1"/>
<rect width="1599.48" height="2.75841" transform="matrix(0.923077 -0.384615 0.923077 0.384615 -606.888 371.152)" fill="white" fill-opacity="0.1"/>
<rect width="1599.48" height="2.75841" transform="matrix(0.923077 -0.384615 0.923077 0.384615 -276.737 498.43)" fill="white" fill-opacity="0.1"/>
<rect width="1599.48" height="2.75841" transform="matrix(0.923077 -0.384615 0.923077 0.384615 -301.419 498.43)" fill="white" fill-opacity="0.1"/>
<rect width="1599.48" height="2.75841" transform="matrix(0.923077 -0.384615 0.923077 0.384615 28.7339 625.709)" fill="white" fill-opacity="0.1"/>
<rect width="1599.48" height="2.75841" transform="matrix(0.923077 -0.384615 0.923077 0.384615 4.05177 625.709)" fill="white" fill-opacity="0.1"/>
<rect width="1599.48" height="2.75841" transform="matrix(0.923077 -0.384615 0.923077 0.384615 283.294 731.776)" fill="white" fill-opacity="0.1"/>
<rect width="1599.48" height="2.75841" transform="matrix(0.923077 -0.384615 0.923077 0.384615 258.611 731.776)" fill="white" fill-opacity="0.1"/>
<rect width="1599.48" height="2.75841" transform="matrix(0.923077 -0.384615 0.923077 0.384615 537.85 837.842)" fill="white" fill-opacity="0.1"/>
<rect width="1599.48" height="2.75841" transform="matrix(0.923077 -0.384615 0.923077 0.384615 513.167 837.842)" fill="white" fill-opacity="0.1"/>
<rect width="1599.48" height="2.75841" transform="matrix(0.923077 -0.384615 0.923077 0.384615 -658.573 339.332)" fill="white" fill-opacity="0.1"/>
<rect width="1599.48" height="2.75841" transform="matrix(0.923077 -0.384615 0.923077 0.384615 -683.256 339.332)" fill="white" fill-opacity="0.1"/>
<rect width="1599.48" height="2.75841" transform="matrix(0.923077 -0.384615 0.923077 0.384615 -353.105 466.61)" fill="white" fill-opacity="0.1"/>
<rect width="1599.48" height="2.75841" transform="matrix(0.923077 -0.384615 0.923077 0.384615 -377.787 466.61)" fill="white" fill-opacity="0.1"/>
<rect width="1599.48" height="2.75841" transform="matrix(0.923077 -0.384615 0.923077 0.384615 -47.6338 593.89)" fill="white" fill-opacity="0.1"/>
<rect width="1599.48" height="2.75841" transform="matrix(0.923077 -0.384615 0.923077 0.384615 -72.316 593.89)" fill="white" fill-opacity="0.1"/>
<rect width="1599.48" height="2.75841" transform="matrix(0.923077 -0.384615 0.923077 0.384615 -505.838 402.971)" fill="white" fill-opacity="0.1"/>
<rect width="1599.48" height="2.75841" transform="matrix(0.923077 -0.384615 0.923077 0.384615 -530.52 402.971)" fill="white" fill-opacity="0.1"/>
<rect width="1599.48" height="2.75841" transform="matrix(0.923077 -0.384615 0.923077 0.384615 -200.369 530.25)" fill="white" fill-opacity="0.1"/>
<rect width="1599.48" height="2.75841" transform="matrix(0.923077 -0.384615 0.923077 0.384615 -225.052 530.25)" fill="white" fill-opacity="0.1"/>
<rect width="1599.48" height="2.75841" transform="matrix(0.923077 -0.384615 0.923077 0.384615 105.102 657.53)" fill="white" fill-opacity="0.1"/>
<rect width="1599.48" height="2.75841" transform="matrix(0.923077 -0.384615 0.923077 0.384615 80.4195 657.53)" fill="white" fill-opacity="0.1"/>
<rect width="1599.48" height="2.75841" transform="matrix(0.923077 -0.384615 0.923077 0.384615 359.661 763.596)" fill="white" fill-opacity="0.1"/>
<rect width="1599.48" height="2.75841" transform="matrix(0.923077 -0.384615 0.923077 0.384615 334.979 763.596)" fill="white" fill-opacity="0.1"/>
<rect width="1599.48" height="2.75841" transform="matrix(0.923077 -0.384615 0.923077 0.384615 614.218 869.661)" fill="white" fill-opacity="0.1"/>
<rect width="1599.48" height="2.75841" transform="matrix(0.923077 -0.384615 0.923077 0.384615 589.535 869.661)" fill="white" fill-opacity="0.1"/>
<rect width="1599.48" height="2.75841" transform="matrix(0.923077 -0.384615 0.923077 0.384615 181.47 689.35)" fill="white" fill-opacity="0.1"/>
<rect width="1599.48" height="2.75841" transform="matrix(0.923077 -0.384615 0.923077 0.384615 156.787 689.35)" fill="white" fill-opacity="0.1"/>
<rect width="1599.48" height="2.75841" transform="matrix(0.923077 -0.384615 0.923077 0.384615 436.026 795.415)" fill="white" fill-opacity="0.1"/>
<rect width="1599.48" height="2.75841" transform="matrix(0.923077 -0.384615 0.923077 0.384615 411.344 795.415)" fill="white" fill-opacity="0.1"/>
<rect width="1599.48" height="2.75841" transform="matrix(0.923077 -0.384615 0.923077 0.384615 690.586 901.481)" fill="white" fill-opacity="0.1"/>
<rect width="1599.48" height="2.75841" transform="matrix(0.923077 -0.384615 0.923077 0.384615 665.903 901.481)" fill="white" fill-opacity="0.1"/>
<rect width="1599.48" height="2.75841" transform="matrix(0.923077 -0.384615 0.923077 0.384615 -709.485 318.118)" fill="white" fill-opacity="0.1"/>
<rect width="1599.48" height="2.75841" transform="matrix(0.923077 -0.384615 0.923077 0.384615 -734.168 318.118)" fill="white" fill-opacity="0.1"/>
<rect width="1599.48" height="2.75841" transform="matrix(0.923077 -0.384615 0.923077 0.384615 -404.014 445.398)" fill="white" fill-opacity="0.1"/>
<rect width="1599.48" height="2.75841" transform="matrix(0.923077 -0.384615 0.923077 0.384615 -428.696 445.398)" fill="white" fill-opacity="0.1"/>
<rect width="1599.48" height="2.75841" transform="matrix(0.923077 -0.384615 0.923077 0.384615 -98.5458 572.677)" fill="white" fill-opacity="0.1"/>
<rect width="1599.48" height="2.75841" transform="matrix(0.923077 -0.384615 0.923077 0.384615 -123.228 572.677)" fill="white" fill-opacity="0.1"/>
<rect width="1599.48" height="2.75841" transform="matrix(0.923077 -0.384615 0.923077 0.384615 -556.749 381.758)" fill="white" fill-opacity="0.1"/>
<rect width="1599.48" height="2.75841" transform="matrix(0.923077 -0.384615 0.923077 0.384615 -581.432 381.758)" fill="white" fill-opacity="0.1"/>
<rect width="1599.48" height="2.75841" transform="matrix(0.923077 -0.384615 0.923077 0.384615 -251.281 509.037)" fill="white" fill-opacity="0.1"/>
<rect width="1599.48" height="2.75841" transform="matrix(0.923077 -0.384615 0.923077 0.384615 -275.964 509.037)" fill="white" fill-opacity="0.1"/>
<rect width="1599.48" height="2.75841" transform="matrix(0.923077 -0.384615 0.923077 0.384615 54.1899 636.316)" fill="white" fill-opacity="0.1"/>
<rect width="1599.48" height="2.75841" transform="matrix(0.923077 -0.384615 0.923077 0.384615 29.5076 636.316)" fill="white" fill-opacity="0.1"/>
<rect width="1599.48" height="2.75841" transform="matrix(0.923077 -0.384615 0.923077 0.384615 308.75 742.383)" fill="white" fill-opacity="0.1"/>
<rect width="1599.48" height="2.75841" transform="matrix(0.923077 -0.384615 0.923077 0.384615 284.067 742.383)" fill="white" fill-opacity="0.1"/>
<rect width="1599.48" height="2.75841" transform="matrix(0.923077 -0.384615 0.923077 0.384615 563.306 848.448)" fill="white" fill-opacity="0.1"/>
<rect width="1599.48" height="2.75841" transform="matrix(0.923077 -0.384615 0.923077 0.384615 538.623 848.448)" fill="white" fill-opacity="0.1"/>
<rect width="1599.48" height="2.75841" transform="matrix(0.923077 -0.384615 0.923077 0.384615 -633.117 349.938)" fill="white" fill-opacity="0.1"/>
<rect width="1599.48" height="2.75841" transform="matrix(0.923077 -0.384615 0.923077 0.384615 -657.8 349.938)" fill="white" fill-opacity="0.1"/>
<rect width="1599.48" height="2.75841" transform="matrix(0.923077 -0.384615 0.923077 0.384615 -327.649 477.217)" fill="white" fill-opacity="0.1"/>
<rect width="1599.48" height="2.75841" transform="matrix(0.923077 -0.384615 0.923077 0.384615 -352.331 477.217)" fill="white" fill-opacity="0.1"/>
<rect width="1599.48" height="2.75841" transform="matrix(0.923077 -0.384615 0.923077 0.384615 -22.1779 604.497)" fill="white" fill-opacity="0.1"/>
<rect width="1599.48" height="2.75841" transform="matrix(0.923077 -0.384615 0.923077 0.384615 -46.8602 604.496)" fill="white" fill-opacity="0.1"/>
<rect width="1599.48" height="2.75841" transform="matrix(0.923077 -0.384615 0.923077 0.384615 -480.382 413.578)" fill="white" fill-opacity="0.1"/>
<rect width="1599.48" height="2.75841" transform="matrix(0.923077 -0.384615 0.923077 0.384615 -505.064 413.578)" fill="white" fill-opacity="0.1"/>
<rect width="1599.48" height="2.75841" transform="matrix(0.923077 -0.384615 0.923077 0.384615 -174.914 540.856)" fill="white" fill-opacity="0.1"/>
<rect width="1599.48" height="2.75841" transform="matrix(0.923077 -0.384615 0.923077 0.384615 -199.596 540.857)" fill="white" fill-opacity="0.1"/>
<rect width="1599.48" height="2.75841" transform="matrix(0.923077 -0.384615 0.923077 0.384615 130.557 668.136)" fill="white" fill-opacity="0.1"/>
<rect width="1599.48" height="2.75841" transform="matrix(0.923077 -0.384615 0.923077 0.384615 105.875 668.136)" fill="white" fill-opacity="0.1"/>
<rect width="1599.48" height="2.75841" transform="matrix(0.923077 -0.384615 0.923077 0.384615 385.115 774.201)" fill="white" fill-opacity="0.1"/>
<rect width="1599.48" height="2.75841" transform="matrix(0.923077 -0.384615 0.923077 0.384615 360.432 774.201)" fill="white" fill-opacity="0.1"/>
<rect width="1599.48" height="2.75841" transform="matrix(0.923077 -0.384615 0.923077 0.384615 639.674 880.268)" fill="white" fill-opacity="0.1"/>
<rect width="1599.48" height="2.75841" transform="matrix(0.923077 -0.384615 0.923077 0.384615 614.992 880.268)" fill="white" fill-opacity="0.1"/>
<rect width="1599.48" height="2.75841" transform="matrix(0.923077 -0.384615 0.923077 0.384615 206.925 699.956)" fill="white" fill-opacity="0.1"/>
<rect width="1599.48" height="2.75841" transform="matrix(0.923077 -0.384615 0.923077 0.384615 182.243 699.957)" fill="white" fill-opacity="0.1"/>
<rect width="1599.48" height="2.75841" transform="matrix(0.923077 -0.384615 0.923077 0.384615 461.482 806.021)" fill="white" fill-opacity="0.1"/>
<rect width="1599.48" height="2.75841" transform="matrix(0.923077 -0.384615 0.923077 0.384615 436.8 806.021)" fill="white" fill-opacity="0.1"/>
<rect width="1599.48" height="2.75841" transform="matrix(0.923077 -0.384615 0.923077 0.384615 716.042 912.088)" fill="white" fill-opacity="0.1"/>
<rect width="1599.48" height="2.75841" transform="matrix(0.923077 -0.384615 0.923077 0.384615 691.359 912.088)" fill="white" fill-opacity="0.1"/>
<rect width="1599.48" height="2.75841" transform="matrix(0.923077 -0.384615 0.923077 0.384615 232.381 710.563)" fill="white" fill-opacity="0.1"/>
<rect width="1599.48" height="2.75841" transform="matrix(0.923077 -0.384615 0.923077 0.384615 207.699 710.562)" fill="white" fill-opacity="0.1"/>
<rect width="1599.48" height="2.75841" transform="matrix(0.923077 -0.384615 0.923077 0.384615 486.938 816.628)" fill="white" fill-opacity="0.1"/>
<rect width="1599.48" height="2.75841" transform="matrix(0.923077 -0.384615 0.923077 0.384615 462.256 816.628)" fill="white" fill-opacity="0.1"/>
<rect width="1599.48" height="2.75841" transform="matrix(0.923077 -0.384615 0.923077 0.384615 741.498 922.695)" fill="white" fill-opacity="0.1"/>
<rect width="1599.48" height="2.75841" transform="matrix(0.923077 -0.384615 0.923077 0.384615 716.815 922.694)" fill="white" fill-opacity="0.1"/>
</g>
</mask>
<g mask="url(#mask0)">
<path d="M-1 27.4427C558.5 -67.8719 892.5 123.442 1439 27.4427V576.014C897.5 669.271 561 450.871 -1 576.014V27.4427Z" fill="white"/>
</g>
</svg>
