<svg width="127" height="43" viewBox="0 0 127 43" fill="none" xmlns="http://www.w3.org/2000/svg">
<path d="M65.02 30.546C64.1925 30.5643 62.3383 31.2855 61.5417 34.0242C60.546 37.4476 65.8315 40.6234 66.3994 37.3802C66.9408 34.2885 61.1686 31.5698 57.8914 36.5607" stroke="#FBFBFB"/>
<path d="M93.4544 38.8974C93.4544 38.8974 97.5012 35.4927 106.802 35.2848C111.732 35.1758 120.146 35.287 126 40.4332" stroke="#FBFBFB" stroke-width="2" stroke-miterlimit="10"/>
<path d="M106.8 29.6219C111.235 27.6872 116.882 29.4799 119.848 24.0885" stroke="#FBFBFB" stroke-width="2" stroke-miterlimit="10"/>
<path d="M99.0551 20.234C99.0551 20.234 98.9287 17.5695 102.24 16.6815C105.552 15.7943 108.734 20.7421 105.359 23.6599C101.985 26.5778 97.8716 26.8662 94.8481 30.3551" stroke="#FBFBFB" stroke-width="2" stroke-miterlimit="10"/>
<path d="M33.5442 38.8973C33.5442 38.8973 29.4944 35.4927 20.1982 35.2848C15.2656 35.1757 6.85149 35.2869 1 40.4331" stroke="#FBFBFB" stroke-width="2" stroke-miterlimit="10"/>
<path d="M20.1975 29.622C15.7633 27.6872 10.1139 29.48 7.14851 24.0886" stroke="#FBFBFB" stroke-width="2" stroke-miterlimit="10"/>
<path d="M27.9409 20.234C27.9409 20.234 28.0689 17.5694 24.7572 16.6814C21.4448 15.7942 18.2647 20.742 21.6366 23.6599C25.0122 26.5777 29.1245 26.8661 32.148 30.355" stroke="#FBFBFB" stroke-width="2" stroke-miterlimit="10"/>
<path d="M59.4145 4.13849C59.4145 4.13849 58.1785 3.75391 58.3232 2.09643C58.4683 0.439076 61.2525 -0.190523 62.023 1.83235C62.7935 3.85522 62.2423 5.77891 63.3314 7.73665" stroke="#FBFBFB" stroke-miterlimit="10"/>
<path d="M68.8387 4.15171C68.8387 4.15171 70.0748 3.7671 69.9301 2.10961C69.7851 0.452238 67.0007 -0.177297 66.2301 1.84561C65.4595 3.86852 66.0107 5.79221 64.9215 7.75" stroke="#FBFBFB" stroke-miterlimit="10"/>
<path d="M59.0449 22.3789L59.283 18.2153C59.283 18.2153 56.4806 20.3729 51.1141 17.7481C45.7476 15.1232 42.9452 17.2809 42.9452 17.2809L42.7071 21.4446C42.7071 21.4446 43.1773 23.8382 44.3706 24.999C45.5613 26.1573 47.8782 27.3083 50.5591 27.4518C53.2109 27.5937 55.5512 26.7385 56.9057 25.7159C58.2469 24.7035 59.0449 22.3789 59.0449 22.3789Z" fill="white" fill-opacity="0.6"/>
<path d="M59.2572 21.3996C57.4971 26.2354 52.4433 28.8347 47.967 27.2055C43.4935 25.5773 41.2928 20.3375 43.0529 15.5017L47.967 8.811L60.2625 13.3975L59.2572 21.3996Z" stroke="#FBFBFB" stroke-width="2" stroke-miterlimit="10"/>
<path d="M46.9105 26.7289L42.464 38.9457" stroke="#FBFBFB" stroke-width="2" stroke-miterlimit="10"/>
<path d="M44.9189 39.8321L49.3802 27.5747" stroke="#FBFBFB" stroke-width="2" stroke-miterlimit="10"/>
<path d="M37.2977 37.0652L50.1593 41.7465" stroke="#FBFBFB" stroke-width="2" stroke-miterlimit="10"/>
<path d="M84.759 21.7918L84.7349 17.6742C84.7349 17.6742 82.0592 13.9014 76.274 17.7238C70.4887 21.5462 67.8131 17.7733 67.8131 17.7733L67.8372 21.8909C67.8372 21.8909 68.4777 24.2202 69.7844 25.2896C71.0883 26.3566 73.5541 27.3461 76.3302 27.3202C79.0761 27.2946 81.4359 26.3057 82.7676 25.2135C84.086 24.1322 84.759 21.7918 84.759 21.7918Z" fill="white" fill-opacity="0.6"/>
<path d="M83.9691 15.5017C85.7292 20.3375 83.5285 25.5773 79.0522 27.2065C74.5788 28.8347 69.5249 26.2354 67.7648 21.3996L66.7802 13.2165L79.031 8.81101L83.9691 15.5017Z" stroke="#FBFBFB" stroke-width="2" stroke-miterlimit="10"/>
<path d="M77.9366 27.5205L82.3831 39.7373" stroke="#FBFBFB" stroke-width="2" stroke-miterlimit="10"/>
<path d="M84.8335 38.8383L80.3722 26.581" stroke="#FBFBFB" stroke-width="2" stroke-miterlimit="10"/>
<path d="M77.2168 41.6177L90.0784 36.9364" stroke="#FBFBFB" stroke-width="2" stroke-miterlimit="10"/>
</svg>
